<?xml version="1.0" standalone="no"?>
<!DOCTYPE svg PUBLIC "-//W3C//DTD SVG 20010904//EN"
 "http://www.w3.org/TR/2001/REC-SVG-20010904/DTD/svg10.dtd">
<svg version="1.0" xmlns="http://www.w3.org/2000/svg"
 width="796.000000pt" height="796.000000pt" viewBox="0 0 796.000000 796.000000"
 preserveAspectRatio="xMidYMid meet">
<metadata>
Created by potrace 1.14, written by Peter Selinger 2001-2017
</metadata>
<g transform="translate(0.000000,796.000000) scale(0.100000,-0.100000)"
fill="#000000" stroke="none">
<path d="M1626 7946 c3 -9 -3 -17 -16 -21 -30 -10 -20 -28 25 -43 21 -7 58
-28 80 -47 23 -19 59 -42 79 -52 36 -17 39 -17 51 0 7 9 17 17 23 17 6 0 19
14 27 31 22 42 56 79 72 79 8 0 16 6 19 14 3 8 11 13 19 10 7 -3 15 2 18 10 6
14 -17 16 -198 16 -172 0 -204 -2 -199 -14z"/>
<path d="M3586 7945 c-8 -22 -74 -45 -111 -39 -22 3 -49 -2 -77 -14 -34 -16
-62 -19 -133 -17 -49 1 -102 5 -116 9 -25 7 -27 5 -33 -35 -4 -28 -3 -45 4
-47 5 -2 10 -11 10 -19 0 -8 16 -37 36 -64 19 -26 36 -57 37 -69 1 -14 6 -18
19 -14 11 3 20 -1 24 -11 5 -12 14 -15 32 -10 18 4 30 0 46 -17 11 -12 20 -26
19 -30 -4 -12 69 -26 140 -27 36 -1 53 -23 25 -34 -7 -2 -1 -8 15 -12 15 -4
32 -16 38 -26 6 -11 21 -19 37 -19 l27 -1 -22 -18 c-26 -22 -30 -36 -8 -28 8
4 17 2 20 -3 8 -13 45 -13 45 0 0 21 20 9 21 -12 l0 -23 16 23 c18 26 45 29
41 5 -2 -12 3 -18 15 -17 15 2 21 -8 18 -28 0 -4 16 -10 37 -13 96 -15 167
-26 280 -41 138 -19 153 -15 146 39 -15 117 -20 468 -6 493 5 11 12 45 16 77
l6 57 -329 0 c-274 -1 -330 -3 -335 -15z m181 -78 c2 -14 -1 -16 -12 -7 -10 8
-14 8 -18 -2 -3 -7 -6 -4 -6 7 -1 27 34 28 36 2z m81 -51 c3 -6 7 -17 8 -24 3
-18 -16 -72 -25 -72 -6 0 -29 -43 -48 -90 -9 -23 -15 -25 -57 -22 -25 2 -46 8
-46 13 0 5 7 9 16 9 13 0 12 5 -5 26 -26 33 -27 59 -2 76 10 8 21 25 23 38 2
19 9 25 26 24 15 0 22 5 22 18 0 15 7 18 40 16 23 -1 44 -6 48 -12z m-464
-247 c-8 -14 -24 -10 -24 6 0 9 6 12 15 9 8 -4 12 -10 9 -15z m363 0 c-9 -6
-15 -14 -12 -20 4 -5 0 -9 -7 -9 -8 0 -14 9 -14 20 0 15 7 20 26 20 22 -1 23
-2 7 -11z m-95 -151 c-9 -9 -15 -9 -24 0 -9 9 -7 12 12 12 19 0 21 -3 12 -12z"/>
<path d="M5267 7946 c-4 -11 -3 -24 4 -32 15 -18 6 -104 -12 -115 -11 -7 -10
-11 5 -22 15 -11 17 -17 7 -35 -8 -14 -8 -22 -1 -22 14 0 12 -21 -4 -39 -20
-23 -30 -77 -16 -86 8 -5 6 -13 -6 -26 -14 -15 -15 -25 -6 -61 6 -24 7 -48 2
-58 -5 -9 -6 -44 -3 -78 4 -48 10 -62 22 -63 11 0 9 -4 -7 -11 -14 -7 -20 -17
-17 -27 2 -9 -2 -29 -10 -45 -18 -35 -19 -53 -2 -59 6 -3 7 -6 1 -6 -6 -1 -9
-14 -6 -31 3 -22 10 -30 26 -30 140 -2 188 -7 194 -17 5 -8 13 -9 22 -3 8 6
26 10 40 10 20 0 22 -2 10 -10 -17 -11 -11 -12 48 -10 24 1 42 -3 42 -9 0 -6
6 -11 14 -11 18 0 29 -42 13 -52 -8 -6 -9 -10 -1 -15 28 -20 26 -123 -3 -123
-13 0 -13 -3 -3 -15 11 -13 10 -14 -4 -9 -11 4 -16 1 -16 -10 0 -12 11 -16 43
-17 l42 -2 -39 -6 c-47 -7 -61 -30 -19 -32 63 -3 -76 -20 -157 -19 -66 1 -88
5 -97 18 -8 9 -13 11 -13 4 0 -7 -5 -12 -11 -12 -5 0 -7 5 -4 11 4 5 -1 19
-10 29 -9 10 -14 24 -10 29 3 6 2 11 -4 11 -5 0 -16 3 -24 6 -8 3 -21 -1 -28
-9 -8 -7 -29 -21 -47 -30 -33 -16 -33 -16 -28 6 3 12 3 16 0 10 -3 -7 -12 -13
-20 -13 -17 0 -19 -17 -1 -23 9 -4 8 -8 -3 -16 -12 -8 -12 -11 -1 -11 10 0 11
-3 2 -14 -9 -10 -8 -16 4 -26 8 -7 15 -19 15 -26 0 -8 3 -13 8 -13 21 4 31 -2
26 -15 -3 -9 3 -20 15 -28 12 -7 21 -17 21 -23 0 -6 10 -17 21 -25 12 -8 30
-34 40 -58 12 -27 28 -46 44 -52 32 -12 96 -5 134 15 31 15 43 12 34 -11 -3
-9 2 -14 16 -14 25 0 40 -28 21 -40 -11 -7 -11 -11 -1 -24 8 -9 20 -16 28 -16
9 0 13 -6 10 -14 -3 -8 -1 -17 6 -20 7 -2 -12 -5 -41 -5 -36 -1 -51 -5 -46
-12 4 -7 24 -9 50 -6 24 2 41 1 38 -4 -3 -5 -20 -9 -39 -9 -19 0 -36 -4 -39
-9 -9 -14 21 -21 46 -12 14 5 30 4 40 -3 22 -13 35 -1 18 19 -15 18 3 21 22 3
17 -17 92 -20 146 -6 35 9 45 8 60 -5 15 -14 16 -27 9 -104 -4 -48 -9 -131
-12 -183 -2 -52 -7 -140 -10 -195 -12 -178 -16 -266 -20 -520 -2 -137 -6 -268
-9 -289 -2 -21 -7 -66 -11 -99 -3 -33 -8 -64 -11 -69 -8 -13 -24 -9 -24 5 0 8
-9 22 -20 32 -13 12 -17 22 -10 29 5 7 9 21 9 31 0 11 1 148 3 305 1 233 -1
303 -15 382 -19 102 -58 213 -71 201 -5 -5 -5 3 -1 17 7 23 7 23 -9 7 -10 -9
-14 -22 -10 -29 4 -7 9 -23 10 -36 2 -13 10 -32 19 -42 15 -16 14 -18 -7 -24
-18 -5 -20 -8 -9 -15 9 -6 10 -14 5 -22 -5 -8 -9 -17 -10 -21 -1 -5 -3 -11 -4
-15 -1 -5 -2 -16 -1 -25 2 -11 -5 -18 -16 -18 -14 0 -15 -2 -4 -9 20 -13 6
-78 -19 -86 -18 -6 -18 -8 8 -32 l27 -26 -27 7 c-31 7 -38 -7 -10 -23 15 -9
15 -10 -5 -11 -14 0 -23 -6 -23 -16 0 -9 5 -13 13 -9 6 4 4 0 -5 -8 -34 -27
-12 -72 37 -80 23 -3 20 -4 -13 -6 -27 0 -41 3 -37 9 3 6 1 10 -5 10 -6 0 -14
-10 -19 -22 -7 -17 -4 -28 11 -42 11 -10 22 -15 26 -11 4 4 1 10 -5 12 -22 8
-14 25 10 21 15 -2 21 -9 19 -20 -2 -11 3 -18 13 -18 8 0 15 -4 15 -10 0 -5
11 -12 25 -16 39 -10 29 -20 -15 -16 -25 3 -40 9 -40 17 0 8 -8 13 -17 13 -10
0 -27 3 -37 7 -16 7 -18 5 -13 -8 3 -9 -1 -33 -9 -53 -11 -26 -12 -39 -4 -49
8 -10 8 -15 -1 -20 -6 -4 -15 -2 -19 5 -10 17 -23 -15 -26 -65 -1 -26 3 -44
14 -52 13 -11 13 -13 -2 -19 -13 -5 -16 -13 -11 -31 3 -14 1 -31 -5 -38 -8
-10 -6 -15 8 -19 14 -5 19 -15 18 -36 -2 -42 -10 -44 -47 -11 -18 17 -37 31
-42 31 -4 0 -6 12 -5 27 2 20 -2 28 -15 31 -10 2 -34 19 -54 38 -19 19 -43 34
-54 34 -10 0 -19 5 -19 11 0 8 -4 8 -12 2 -16 -13 -68 -27 -88 -24 -12 1 -11
-1 3 -12 24 -20 21 -28 -7 -17 -13 5 -33 6 -45 3 -12 -3 -21 -1 -21 5 0 5 -13
12 -30 14 -16 3 -30 2 -30 -1 0 -6 -25 -8 -110 -11 -25 -1 -51 -7 -58 -13 -7
-5 -39 -11 -70 -12 -31 -2 -66 -6 -77 -10 -20 -7 -20 -6 -1 9 11 9 15 16 9 16
-14 0 -37 -29 -30 -37 4 -3 -5 -12 -19 -20 -31 -16 -34 -16 -34 -3 0 6 7 10
16 10 9 0 12 5 8 12 -4 6 1 17 11 25 17 12 17 13 2 13 -9 0 -26 -9 -38 -21
-11 -11 -30 -21 -42 -22 -12 -1 -32 -12 -44 -26 -20 -21 -23 -21 -23 -6 0 17
-1 17 -20 0 -11 -10 -20 -26 -20 -37 0 -10 -4 -18 -10 -18 -5 0 -7 7 -4 15 4
8 1 15 -5 15 -6 0 -11 -7 -11 -15 0 -9 -6 -12 -17 -8 -10 4 -14 2 -10 -4 4 -6
1 -14 -5 -16 -10 -4 -9 -8 2 -16 8 -5 11 -13 7 -18 -5 -4 -12 -1 -16 6 -6 9
-14 10 -22 5 -15 -9 -20 -11 -43 -13 -7 0 -13 -12 -13 -26 0 -14 -3 -29 -7
-32 -8 -8 -37 18 -30 28 9 16 -2 10 -30 -16 -30 -28 -32 -35 -11 -35 23 0 18
-18 -6 -22 -24 -3 -48 -33 -36 -44 4 -4 13 -2 19 4 14 14 28 16 28 4 0 -4 -16
-16 -35 -27 l-36 -19 36 -31 c21 -19 35 -41 35 -55 0 -12 8 -29 18 -36 11 -9
13 -13 4 -14 -7 0 -10 -5 -7 -10 4 -6 11 -8 16 -5 5 3 6 -1 3 -9 -3 -8 -13
-13 -22 -10 -9 3 7 -7 37 -21 43 -22 55 -24 62 -13 11 17 46 19 46 2 0 -8 -7
-14 -14 -14 -8 0 -11 -5 -7 -12 5 -8 -2 -9 -27 -4 -50 11 -177 25 -236 25 -38
1 -51 -2 -48 -11 6 -14 92 -18 113 -5 6 5 12 4 12 -1 0 -9 55 -26 72 -24 4 1
16 -10 28 -25 16 -20 18 -28 8 -35 -10 -6 -10 -8 0 -8 6 0 12 -9 12 -20 0 -20
-1 -20 -25 -4 -29 19 -33 6 -6 -27 15 -20 18 -40 16 -122 -1 -84 1 -100 18
-118 14 -15 16 -23 8 -28 -7 -5 -9 -19 -5 -39 8 -39 24 -52 24 -20 0 18 2 20
10 8 5 -8 7 -23 4 -34 -4 -10 -2 -16 2 -13 5 3 10 -16 12 -41 1 -28 8 -50 17
-55 9 -5 15 -23 15 -43 0 -37 26 -104 41 -104 15 0 21 21 9 35 -13 15 -5 55
11 55 6 0 7 5 4 10 -3 6 -1 10 4 10 6 0 11 -3 11 -7 0 -8 74 -87 104 -111 9
-7 14 -17 11 -22 -3 -5 3 -11 14 -15 18 -5 26 -20 41 -78 6 -23 5 -27 -7 -23
-8 4 -27 -1 -43 -10 -25 -15 -30 -15 -59 -1 -17 8 -31 11 -31 6 0 -5 -17 -6
-39 -3 -39 6 -40 6 -75 -47 -37 -58 -77 -99 -95 -99 -10 0 -15 -14 -12 -32 0
-5 -4 -8 -9 -8 -6 0 -10 6 -10 14 0 13 -4 13 -27 0 -16 -7 -36 -14 -45 -14 -9
0 -20 -5 -23 -10 -4 -6 -16 -8 -28 -5 -12 2 -16 2 -9 -1 19 -9 14 -27 -6 -22
-15 4 -18 0 -17 -23 2 -36 -14 -37 -53 -4 -31 26 -48 31 -54 16 -5 -13 -48
-24 -48 -12 0 6 9 11 19 11 11 0 23 5 26 10 10 16 -36 49 -68 50 -30 0 -77
-39 -77 -65 0 -8 -5 -15 -11 -15 -5 0 -7 -5 -4 -10 4 -6 -1 -22 -9 -36 -16
-23 -15 -25 9 -50 15 -14 29 -23 32 -20 4 3 -3 15 -15 26 l-22 21 33 35 c17
20 36 42 40 50 8 15 37 20 37 6 0 -4 -9 -13 -20 -20 -27 -17 -26 -36 3 -29 17
5 25 0 34 -18 6 -14 7 -25 2 -25 -5 0 -9 -6 -9 -14 0 -8 -6 -17 -12 -20 -10
-5 -10 -7 0 -12 6 -3 12 -13 12 -21 0 -14 -2 -14 -18 0 -23 21 -32 21 -32 1 0
-13 -6 -15 -27 -9 -22 5 -24 4 -15 -7 9 -11 6 -14 -11 -15 -37 -3 -97 -25 -91
-35 9 -14 -25 -41 -39 -30 -14 12 -67 4 -67 -9 0 -5 -7 -9 -15 -9 -8 0 -15 -5
-15 -11 0 -5 4 -7 10 -4 6 3 10 -1 10 -9 0 -9 3 -16 6 -16 10 0 34 28 34 39 0
13 10 14 30 1 13 -8 12 -11 -4 -23 -17 -13 -16 -14 18 -15 36 -1 44 6 26 24
-14 14 32 67 59 69 12 1 20 -3 18 -9 -2 -6 -11 -10 -20 -8 -8 1 -19 -3 -23 -9
-4 -8 -3 -9 4 -5 20 12 35 -5 16 -18 -11 -9 -13 -15 -6 -20 6 -3 13 -2 17 4 3
5 11 10 17 10 6 0 2 -10 -10 -23 -30 -32 -17 -41 15 -11 32 29 43 30 50 4 3
-11 9 -20 14 -20 5 0 9 -8 9 -19 0 -21 54 -36 93 -27 12 3 16 3 10 0 -21 -9
-15 -21 14 -29 33 -8 42 -20 36 -46 -7 -24 -27 -24 -82 1 -59 27 -117 36 -136
20 -8 -6 -19 -9 -25 -5 -5 3 -17 0 -25 -7 -46 -42 -46 -42 -82 -28 -27 9 -37
9 -43 0 -5 -9 -9 -8 -13 2 -4 12 -19 13 -78 7 -40 -5 -75 -6 -78 -4 -2 3 1 5
7 5 7 0 12 5 12 10 0 15 -36 12 -50 -5 -7 -8 -18 -15 -24 -14 -7 0 -6 2 2 6 6
2 12 11 12 18 0 10 -10 12 -37 9 -21 -2 -31 -1 -23 3 16 9 25 33 12 33 -15 0
-62 -25 -62 -32 0 -5 -7 -8 -15 -8 -8 0 -15 5 -15 10 0 6 -5 10 -11 10 -8 0
-8 -5 1 -15 7 -8 20 -15 29 -15 14 0 14 -2 1 -10 -10 -6 -16 -6 -18 0 -5 13
-42 13 -42 0 0 -5 -11 -12 -25 -16 -14 -3 -25 -10 -25 -15 0 -5 -11 -14 -25
-19 -14 -5 -25 -16 -25 -25 0 -8 -5 -15 -12 -15 -6 0 -9 -3 -5 -6 3 -4 1 -12
-6 -20 -34 -38 -36 -41 -24 -53 15 -15 -3 -13 -33 4 -14 8 -36 15 -50 15 -23
1 -23 2 -5 10 11 4 29 7 40 6 11 -2 15 -1 9 1 -7 2 -15 14 -18 26 -5 21 -6 22
-21 2 -15 -20 -15 -20 -33 3 -16 20 -19 21 -37 8 -11 -8 -16 -18 -11 -23 5 -4
11 -2 13 5 8 23 25 12 19 -12 -4 -15 0 -28 9 -36 12 -10 14 -24 10 -59 -5 -33
-3 -42 4 -31 5 8 13 12 16 8 4 -3 -2 -15 -13 -26 -14 -14 -16 -22 -8 -34 6 -8
16 -13 23 -11 22 8 24 -17 1 -26 -13 -6 -19 -10 -14 -10 5 -1 -4 -12 -20 -26
-18 -16 -25 -28 -18 -33 6 -4 13 -15 17 -25 4 -10 11 -16 16 -13 13 8 -4 -61
-19 -79 -11 -13 -14 -13 -26 2 -13 17 -14 17 -8 1 4 -12 1 -18 -7 -18 -8 0 1
-10 18 -21 18 -12 33 -25 33 -29 0 -5 8 -11 18 -13 13 -4 11 -5 -5 -6 -25 -1
-31 -17 -10 -24 9 -3 9 -7 -1 -20 -11 -13 -10 -15 8 -10 16 4 20 1 18 -18 -2
-13 2 -24 9 -24 6 0 14 -3 18 -7 8 -8 55 12 55 23 0 4 -8 10 -17 12 -16 4 -16
5 -1 6 9 0 23 -6 32 -14 21 -21 29 -19 16 5 -7 14 -7 20 0 20 17 0 11 29 -8
39 -12 6 -23 5 -37 -5 -10 -8 -13 -14 -7 -14 7 0 12 -4 12 -10 0 -14 -23 -12
-44 3 -16 12 -12 16 37 41 50 25 81 56 57 56 -6 0 -10 -4 -10 -10 0 -11 -91
-53 -98 -45 -3 3 9 11 26 17 35 13 42 28 15 28 -16 1 -16 2 -3 13 8 7 14 22
12 35 -4 25 -17 29 -26 7 -3 -8 -1 -15 5 -15 15 0 1 -18 -24 -31 -21 -12 -21
-11 -5 8 10 11 14 23 9 29 -5 5 -12 18 -15 30 -7 24 29 46 63 37 14 -3 23 0
27 11 3 9 15 16 26 16 10 0 17 4 13 10 -3 5 -12 7 -20 3 -11 -3 -13 -1 -9 10
3 8 1 18 -5 22 -6 3 -11 -1 -11 -10 0 -15 -2 -15 -17 1 -13 13 -14 19 -5 22
14 4 7 22 -9 22 -6 0 -7 -4 -4 -10 4 -6 -6 -10 -22 -10 l-28 1 30 17 c17 9 41
17 55 17 18 0 25 6 26 20 3 49 5 55 29 61 23 6 30 15 26 37 -1 5 11 7 26 5 23
-2 29 1 31 19 2 13 7 23 12 23 5 0 15 6 22 12 29 27 58 37 103 36 30 0 42 -4
34 -9 -9 -6 -10 -9 -2 -9 20 0 45 32 40 51 -6 21 9 26 16 7 3 -10 7 -10 20 1
14 11 17 11 17 0 0 -11 2 -11 10 1 7 11 12 12 21 3 7 -7 26 -9 47 -6 20 4 33
2 29 -3 -3 -5 11 -8 31 -7 21 1 62 -3 92 -9 30 -6 66 -12 80 -13 14 -2 27 -4
30 -6 7 -3 30 -6 75 -9 l40 -2 -34 -8 c-19 -5 -40 -6 -46 -4 -6 3 -18 -3 -26
-12 -12 -15 -12 -16 9 -9 18 5 30 1 47 -15 13 -12 25 -17 29 -12 3 6 27 10 52
9 43 0 44 -1 23 -13 -18 -9 -26 -9 -32 -1 -5 9 -11 8 -20 -3 -6 -9 -19 -14
-29 -12 -23 5 -29 -11 -14 -39 7 -13 10 -31 8 -38 -6 -18 59 -4 74 17 10 13
12 13 17 -1 4 -10 13 -14 21 -11 8 3 19 -3 25 -15 16 -30 22 -27 -61 -34 -21
-1 -43 -8 -49 -14 -8 -8 -19 -9 -37 -2 -20 8 -28 6 -34 -6 -7 -11 -14 -13 -28
-5 -25 13 -31 13 -27 -2 1 -7 -4 -12 -12 -10 -16 3 -51 -26 -51 -44 0 -7 -6
-14 -12 -17 -18 -5 -48 3 -48 14 0 14 28 11 33 -3 4 -8 6 -9 6 -2 2 26 -25 34
-59 17 -38 -18 -112 -35 -105 -22 12 18 -14 17 -33 -1 -12 -11 -26 -20 -31
-20 -5 0 -13 -5 -17 -11 -4 -8 1 -9 16 -4 21 7 22 4 18 -23 -4 -25 -1 -31 18
-35 13 -2 28 1 33 6 8 8 14 8 22 0 9 -9 5 -14 -17 -19 -41 -10 -46 -14 -34
-29 13 -16 5 -35 -13 -35 -7 0 -25 7 -41 15 -15 8 -32 15 -36 15 -13 0 -19
-39 -6 -43 6 -2 8 -8 4 -12 -5 -5 -17 0 -28 10 -20 18 -21 18 -14 0 5 -13 4
-16 -4 -11 -16 10 -54 -3 -46 -15 3 -6 11 -5 21 2 12 10 16 10 24 -2 6 -10 9
-11 9 -1 0 21 18 4 36 -33 17 -36 40 -46 46 -20 3 13 6 13 32 0 35 -19 36 -19
36 1 0 11 6 14 20 9 12 -4 26 -2 33 3 21 17 87 24 103 11 8 -6 23 -9 34 -6 11
3 23 1 26 -4 11 -19 25 -9 18 13 -6 20 -5 21 10 9 10 -9 16 -10 16 -2 0 22 29
10 70 -29 23 -22 46 -40 52 -40 6 0 8 -7 4 -15 -3 -10 1 -15 12 -15 29 0 41
-19 32 -50 -5 -16 -6 -31 -2 -34 3 -3 -4 -6 -16 -6 -25 0 -29 -22 -8 -39 11
-9 15 -9 19 1 2 7 7 10 11 6 4 -3 1 -19 -8 -36 -13 -25 -13 -32 0 -50 13 -19
12 -22 -5 -34 -10 -7 -22 -32 -26 -56 -4 -23 -10 -42 -15 -42 -14 0 -21 33 -9
41 7 4 10 20 7 38 -3 18 -1 34 4 37 11 7 10 24 -2 24 -5 0 -10 -6 -10 -13 0
-8 -10 -23 -23 -35 -18 -17 -26 -19 -35 -10 -14 14 -17 -3 -3 -17 5 -6 12 -25
16 -44 7 -33 7 -33 -15 -18 -12 8 -28 13 -36 10 -7 -3 -21 3 -30 12 -15 14
-15 18 -3 26 8 5 23 6 34 2 20 -6 20 -5 1 16 l-19 21 -30 -30 c-28 -29 -39
-34 -63 -31 -7 1 -9 -9 -6 -25 4 -21 1 -25 -14 -23 -24 3 -91 -27 -97 -43 -4
-10 -9 -9 -20 4 -8 10 -17 15 -20 11 -4 -3 -7 -1 -7 5 0 16 23 28 28 14 2 -7
11 -12 19 -12 14 0 14 3 -2 20 -21 23 -41 26 -52 7 -4 -8 -21 -22 -36 -32 -21
-14 -31 -15 -40 -6 -8 8 -8 11 1 11 7 0 12 7 12 15 0 8 -4 15 -10 15 -5 0 -10
-4 -10 -10 0 -5 -7 -10 -15 -10 -8 0 -15 4 -15 8 0 13 -53 8 -58 -5 -2 -7 -12
-13 -22 -13 -10 0 -21 -4 -24 -9 -8 -13 -48 -1 -67 20 -9 10 -20 15 -24 11 -4
-4 -6 2 -3 13 3 11 -2 27 -10 35 -14 13 -15 12 -9 -2 3 -10 -1 -22 -10 -30
-15 -11 -16 -11 -10 5 4 11 0 24 -12 36 -17 17 -17 21 -4 34 14 13 11 17 -20
32 -39 18 -63 42 -54 52 4 3 13 0 22 -7 17 -14 20 -3 5 20 -7 12 -12 12 -22 2
-18 -18 -27 -15 -25 8 1 13 8 20 21 20 14 0 17 3 10 10 -12 12 -44 3 -44 -11
0 -5 -5 -9 -11 -9 -6 0 -8 8 -5 18 7 21 0 31 -41 60 -35 24 -53 28 -53 12 0
-5 7 -10 17 -10 9 0 13 -3 10 -7 -4 -3 0 -14 8 -23 14 -16 14 -18 0 -23 -10
-5 -15 0 -15 13 0 11 -4 20 -8 20 -5 0 -17 8 -28 18 -22 21 -25 22 -56 22 -17
0 -19 3 -10 12 7 7 12 15 12 19 0 9 -71 5 -88 -5 -7 -4 -16 -5 -20 -1 -4 4 -1
10 6 12 24 9 12 25 -14 19 -20 -5 -24 -3 -22 11 2 12 -4 19 -19 21 -32 5 -38
32 -7 32 16 0 24 5 21 13 -2 6 -12 10 -22 9 -15 -3 -17 -1 -7 11 15 18 3 31
-15 16 -8 -7 -13 -8 -13 -1 0 5 7 15 15 22 13 10 19 10 33 -4 10 -9 26 -16 34
-16 20 0 41 26 35 42 -3 8 -6 6 -6 -5 -1 -14 -7 -16 -28 -11 -30 7 -55 24 -35
24 6 0 16 9 22 20 9 18 8 18 -19 9 -16 -6 -31 -19 -34 -30 -5 -19 -27 -27 -27
-9 0 6 -10 0 -21 -11 -16 -16 -18 -23 -9 -29 9 -6 7 -11 -6 -19 -18 -10 -18
-10 1 -12 11 -1 25 -2 32 -2 7 0 12 -7 11 -16 -3 -38 3 -51 23 -51 11 0 18 -4
14 -9 -5 -9 15 -44 61 -110 9 -13 19 -19 23 -13 7 12 67 -44 85 -80 7 -12 18
-22 24 -21 7 2 12 -1 12 -6 0 -5 17 -20 38 -32 56 -35 73 -52 61 -60 -7 -4 -5
-8 5 -12 9 -4 16 -2 16 3 0 14 29 0 63 -31 17 -16 36 -29 42 -29 7 0 22 -11
35 -25 13 -14 31 -25 41 -25 9 0 19 -4 21 -9 2 -5 23 -22 48 -39 35 -23 44
-36 45 -58 0 -26 3 -29 30 -26 62 6 97 3 120 -12 12 -8 35 -17 49 -19 33 -4
39 -21 9 -25 -13 -2 -23 -8 -23 -13 0 -5 11 -7 24 -3 15 3 29 0 39 -11 9 -9
21 -13 27 -10 5 3 18 1 27 -5 17 -11 17 -11 1 -6 -10 3 -18 0 -18 -5 0 -7 9
-9 23 -5 12 3 26 6 30 6 5 0 5 5 2 10 -3 6 -1 10 5 10 7 0 9 -8 5 -19 -3 -11
-1 -22 5 -26 6 -3 8 -10 5 -15 -3 -5 0 -12 6 -16 8 -4 9 -3 5 4 -4 7 -1 12 10
12 14 0 14 -3 4 -15 -7 -9 -9 -19 -5 -23 4 -4 10 -1 12 6 3 6 12 12 21 12 12
0 10 -4 -7 -17 -22 -15 -25 -15 -36 0 -13 18 -35 23 -35 8 0 -17 46 -40 61
-30 29 18 44 8 17 -12 -32 -24 -36 -39 -10 -39 13 0 22 -12 29 -35 12 -36 5
-49 -19 -40 -8 3 -21 -1 -28 -10 -11 -13 -8 -15 21 -16 33 -1 33 -1 -11 -13
-28 -8 -40 -15 -32 -20 16 -9 6 -25 -22 -36 -17 -7 -17 -9 -3 -9 21 -1 23 -21
1 -21 -8 0 -23 -7 -31 -16 -9 -8 -24 -13 -35 -11 -10 3 -16 1 -12 -4 3 -5 -6
-9 -21 -9 -23 0 -24 -2 -15 -20 6 -11 18 -20 28 -21 14 0 14 -2 -3 -9 -18 -8
-18 -9 5 -10 14 -1 20 -4 13 -6 -7 -3 -9 -12 -6 -20 7 -19 -52 -85 -65 -72 -5
5 -20 8 -33 6 -21 -3 -20 -5 14 -28 24 -16 32 -27 24 -32 -9 -6 -8 -11 3 -19
12 -8 11 -9 -7 -4 -22 6 -63 -12 -63 -28 0 -5 9 -6 20 -2 16 5 19 3 13 -11 -5
-14 -2 -16 23 -10 l29 6 -28 -15 c-25 -15 -29 -14 -48 4 -22 20 -51 18 -70 -5
-7 -9 -31 -14 -61 -14 -27 0 -59 -5 -70 -11 -18 -10 -24 -8 -38 9 -12 15 -41
24 -110 36 -63 11 -101 23 -115 36 -12 11 -26 20 -32 20 -6 0 -16 6 -23 14 -6
8 -21 16 -33 18 -14 2 -21 9 -19 20 1 9 -6 19 -18 23 -11 3 -20 10 -20 15 0 4
-15 13 -33 20 -17 7 -26 14 -19 17 16 6 16 26 0 21 -13 -5 -58 43 -58 61 0 6
-6 8 -14 5 -8 -3 -16 3 -19 15 -3 12 -13 24 -24 28 -20 7 -53 38 -53 50 0 5
-13 14 -30 20 -16 6 -30 18 -30 27 0 9 -5 16 -12 16 -14 0 -58 48 -58 62 0 5
-5 6 -11 3 -6 -4 -13 2 -16 14 -3 12 -12 21 -19 21 -8 0 -14 6 -14 13 -1 6
-14 28 -30 47 -17 19 -30 40 -30 47 0 7 -4 13 -10 13 -5 0 -10 9 -10 20 0 11
-6 20 -12 20 -27 1 -113 227 -105 277 4 19 1 33 -6 36 -25 9 -44 133 -49 315
-1 28 -5 52 -10 52 -5 0 -6 10 -3 21 5 16 3 20 -6 16 -8 -2 -13 -10 -11 -16 1
-7 -3 -9 -9 -5 -7 4 -9 20 -5 42 4 27 2 32 -6 24 -16 -16 -33 -15 -21 1 19 24
23 46 7 40 -19 -7 -18 -3 11 64 14 31 52 92 85 135 55 72 60 82 60 130 0 38
-9 70 -34 122 -40 86 -94 241 -136 396 -17 63 -39 135 -47 160 -8 25 -15 59
-14 77 1 40 -18 55 -66 52 -21 -1 -54 -2 -73 0 -30 1 -32 3 -16 12 10 6 47 9
82 7 35 -2 64 -3 64 -2 0 1 -6 17 -14 35 -12 28 -16 31 -21 17 -9 -22 -72 -24
-128 -4 -29 11 -39 11 -45 1 -4 -6 -70 -31 -147 -55 -172 -52 -184 -57 -213
-92 -13 -15 -32 -28 -42 -28 -20 0 -80 -31 -80 -42 0 -4 9 -9 20 -13 19 -6 19
-7 -5 -33 -24 -26 -27 -26 -53 -12 -21 12 -36 13 -65 6 -20 -5 -37 -13 -37
-18 0 -5 -5 -6 -10 -3 -6 4 -16 3 -23 -3 -7 -5 -21 -12 -32 -15 -14 -5 -11 0
10 18 17 14 35 23 42 21 6 -3 17 2 24 10 11 13 9 14 -17 8 -16 -3 -43 -15 -60
-25 -19 -12 -50 -19 -79 -19 -34 0 -62 -8 -99 -29 -28 -16 -67 -32 -86 -36
-19 -4 -46 -16 -59 -26 -13 -11 -29 -19 -35 -19 -6 0 -27 -11 -46 -24 -19 -12
-53 -29 -75 -37 -44 -16 -211 -104 -225 -119 -3 -3 -21 -17 -40 -30 -47 -32
-162 -134 -214 -189 -22 -25 -65 -68 -94 -96 -28 -29 -52 -57 -52 -63 0 -7
-27 -39 -60 -72 -32 -34 -69 -79 -81 -101 -13 -21 -30 -39 -38 -40 -10 0 -7
-4 7 -10 15 -5 21 -13 16 -21 -4 -7 -7 -32 -7 -56 1 -34 -2 -42 -13 -38 -8 3
-14 -1 -14 -9 0 -7 8 -16 18 -18 16 -4 16 -5 0 -6 -16 -1 -18 -12 -18 -85 0
-58 4 -86 13 -89 9 -4 9 -6 0 -6 -10 -1 -13 -65 -13 -275 0 -264 1 -274 20
-279 32 -8 36 -36 9 -60 -13 -12 -25 -31 -27 -42 -2 -12 0 -16 5 -9 4 6 19 14
33 18 18 5 21 5 11 -3 -13 -8 -11 -13 10 -30 13 -11 29 -20 35 -21 6 0 16 -12
23 -26 8 -19 17 -25 32 -21 12 3 28 -2 39 -13 18 -18 17 -19 -11 -44 -16 -14
-35 -26 -43 -26 -8 0 -22 -10 -31 -22 -13 -20 -17 -21 -26 -8 -7 11 -8 8 -3
-12 6 -25 3 -28 -21 -28 -16 0 -24 -4 -19 -11 3 -6 14 -9 24 -6 9 2 22 -4 28
-14 10 -15 7 -19 -23 -29 l-35 -11 27 -25 c23 -21 25 -27 13 -34 -8 -6 -21
-10 -28 -10 -7 0 -10 -5 -6 -11 4 -7 0 -9 -13 -5 -17 5 -20 1 -21 -29 -2 -41
17 -46 51 -14 12 11 59 38 105 60 45 22 82 44 82 49 0 6 9 10 21 10 14 0 19
-5 16 -14 -3 -8 0 -20 8 -26 19 -16 4 -53 -26 -61 -23 -7 -22 -7 6 -9 17 -1
36 -2 43 -1 6 1 12 -3 12 -10 0 -7 -11 -9 -35 -5 -26 5 -40 3 -51 -9 -8 -8
-24 -15 -35 -15 -10 0 -19 -4 -19 -10 0 -5 10 -10 23 -10 22 -1 22 -1 2 -16
-17 -13 -18 -16 -5 -25 11 -8 9 -9 -10 -3 -14 4 -31 9 -37 11 -7 3 -13 -2 -13
-10 0 -11 -9 -15 -27 -14 -25 2 -28 -1 -28 -28 0 -20 -5 -30 -15 -30 -9 0 -28
-10 -44 -22 l-27 -22 4 -138 c3 -76 8 -153 12 -171 5 -21 4 -32 -4 -32 -7 0
-11 -37 -11 -115 l0 -115 2888 0 2888 0 16 28 c16 26 59 79 151 186 38 44 77
96 125 166 9 14 19 27 23 30 3 3 16 24 28 47 19 38 41 64 41 48 0 -15 -54
-123 -76 -152 -13 -17 -24 -35 -24 -38 0 -4 -12 -20 -27 -35 -33 -35 -31 -32
-113 -140 -36 -47 -67 -87 -70 -90 -3 -3 -14 -15 -24 -27 l-19 -23 1076 0
1077 0 0 3980 0 3980 -1320 0 -1320 0 -6 -25 c-8 -33 -32 -32 -36 3 -3 23 -4
24 -11 8z m143 0 c0 -11 -19 -15 -25 -6 -3 5 1 10 9 10 9 0 16 -2 16 -4z m-30
-26 c0 -5 -4 -10 -10 -10 -5 0 -10 5 -10 10 0 6 5 10 10 10 6 0 10 -4 10 -10z
m-13 -122 c-3 -8 -6 -5 -6 6 -1 11 2 17 5 13 3 -3 4 -12 1 -19z m-54 -325 c-7
-2 -19 -2 -25 0 -7 3 -2 5 12 5 14 0 19 -2 13 -5z m21 -39 c-7 -3 -9 -14 -6
-26 3 -15 1 -19 -9 -16 -8 3 -14 11 -14 19 0 8 -7 17 -15 21 -9 4 0 7 20 7 19
-1 30 -3 24 -5z m6 -74 c0 -5 -13 -10 -30 -10 -16 0 -30 5 -30 10 0 6 14 10
30 10 17 0 30 -4 30 -10z m100 -640 c0 -5 -2 -10 -4 -10 -3 0 -8 5 -11 10 -3
6 -1 10 4 10 6 0 11 -4 11 -10z m205 -260 c3 -5 1 -10 -4 -10 -6 0 -11 5 -11
10 0 6 2 10 4 10 3 0 8 -4 11 -10z m-1 -41 c-8 -14 -44 -10 -44 5 0 9 8 12 25
8 14 -2 22 -8 19 -13z m43 -75 c-3 -3 -12 -4 -19 -1 -8 3 -5 6 6 6 11 1 17 -2
13 -5z m-34 -951 c-7 -2 -19 -2 -25 0 -7 3 -2 5 12 5 14 0 19 -2 13 -5z m31
-107 c-3 -9 -10 -16 -15 -16 -5 0 -4 9 3 20 14 22 21 20 12 -4z m-29 -100 c22
-3 41 -5 43 -5 14 -3 -31 -30 -54 -33 -23 -2 -29 -8 -30 -28 -1 -38 -15 -70
-30 -70 -8 0 -11 6 -8 15 4 8 10 15 15 15 5 0 9 9 9 20 0 11 -5 20 -10 20 -6
0 -5 8 2 20 7 11 21 20 32 20 28 0 14 10 -17 12 -15 1 -27 5 -27 9 0 11 12 18
23 14 7 -3 30 -7 52 -9z m45 -60 c0 -3 -4 -8 -10 -11 -5 -3 -10 -1 -10 4 0 6
5 11 10 11 6 0 10 -2 10 -4z m-42 -67 c-2 -6 -8 -10 -13 -10 -5 0 -11 4 -13
10 -2 6 4 11 13 11 9 0 15 -5 13 -11z m-243 -139 c3 -5 1 -10 -4 -10 -6 0 -11
5 -11 10 0 6 2 10 4 10 3 0 8 -4 11 -10z m155 -141 c0 -6 -4 -7 -10 -4 -5 3
-10 11 -10 16 0 6 5 7 10 4 6 -3 10 -11 10 -16z m173 -36 c21 -42 28 -123 11
-123 -15 0 -15 1 -19 40 -2 14 -5 44 -8 68 -6 49 -3 52 16 15z m-623 -122 c0
-5 -10 -13 -22 -17 -21 -7 -20 -8 11 -16 26 -7 31 -12 20 -19 -8 -5 -21 -8
-29 -8 -10 0 -8 3 5 9 14 6 2 8 -35 5 -179 -15 -215 -16 -200 -6 8 6 11 11 7
11 -5 0 -1 7 8 16 12 13 19 14 28 5 6 -6 20 -12 32 -12 11 -1 2 -5 -20 -9
l-40 -7 37 -2 c39 -1 60 15 34 25 -36 14 -11 21 64 19 44 -1 83 2 86 6 7 12
14 11 14 0z m665 -89 c-8 -8 -25 10 -25 27 0 30 14 34 22 5 4 -16 6 -30 3 -32z
m-561 14 c90 -8 61 -18 -49 -16 -252 4 -455 -10 -455 -32 0 -6 -6 -8 -13 -5
-12 4 -37 1 -140 -18 -19 -3 -26 -1 -21 6 4 8 1 8 -13 0 -21 -11 -64 -11 -57
0 2 4 41 17 86 29 134 37 454 54 662 36z m99 -13 c-7 -2 -19 -2 -25 0 -7 3 -2
5 12 5 14 0 19 -2 13 -5z m180 -40 c-13 -2 -35 -2 -50 0 -16 2 -5 4 22 4 28 0
40 -2 28 -4z m182 -29 c25 -9 46 -23 46 -30 1 -8 2 -20 3 -26 1 -8 13 -12 29
-10 24 2 26 0 22 -25 -2 -15 -7 -107 -10 -203 -3 -96 -8 -188 -10 -205 -4 -38
-30 -436 -34 -534 -1 -8 -4 -11 -8 -7 -11 11 -11 56 -1 161 21 217 19 662 -3
624 -4 -8 -9 -33 -11 -55 -2 -22 -7 -44 -10 -49 -9 -14 -22 -88 -19 -104 1 -8
-2 -10 -10 -6 -7 5 -10 3 -7 -6 3 -8 -1 -26 -9 -41 -14 -28 -6 -37 14 -17 7 7
12 6 17 -6 3 -10 2 -14 -5 -10 -15 10 -47 -23 -54 -55 -3 -16 -13 -31 -21 -34
-19 -7 -18 -26 4 -42 16 -13 16 -13 -3 -14 -12 0 -26 5 -33 12 -9 9 -12 7 -12
-9 0 -12 -6 -24 -12 -26 -10 -4 -10 -6 -1 -6 6 -1 15 4 18 9 3 6 11 10 16 10
5 0 2 -12 -7 -26 l-17 -25 29 7 c25 6 27 5 16 -8 -7 -9 -10 -24 -6 -34 4 -14
3 -16 -4 -5 -8 11 -14 9 -31 -8 l-21 -21 23 -1 c16 -1 18 -2 5 -6 -22 -5 -24
-23 -3 -23 8 0 15 -4 15 -10 0 -5 -6 -10 -12 -10 -16 1 -48 24 -48 36 0 10
-47 34 -67 34 -7 0 -13 5 -13 11 0 6 -7 9 -15 5 -8 -3 -15 -1 -15 5 0 5 7 12
16 16 11 4 12 8 4 13 -13 8 -71 -20 -64 -31 9 -16 -42 5 -60 24 -13 14 -21 16
-24 8 -3 -9 -7 -9 -18 0 -11 9 -14 8 -14 -4 0 -9 5 -19 10 -22 6 -3 10 -19 10
-36 0 -16 -4 -29 -10 -29 -5 0 -10 11 -10 25 0 14 -4 25 -10 25 -5 0 -10 -12
-10 -26 0 -19 -4 -25 -15 -20 -11 4 -15 -1 -15 -18 0 -14 -6 -27 -12 -29 -9
-4 -7 -6 3 -6 12 -1 15 -8 12 -25 -4 -21 -2 -24 16 -19 12 3 28 0 36 -7 8 -6
19 -9 24 -5 7 3 8 0 5 -9 -4 -11 3 -15 28 -18 23 -2 36 -10 43 -25 5 -13 14
-23 20 -23 5 0 3 -5 -5 -10 -13 -8 -13 -10 2 -10 25 0 50 -29 43 -50 -8 -25
11 -35 24 -13 6 10 10 14 11 8 0 -26 -19 -37 -59 -33 -29 2 -41 0 -41 -9 0 -7
9 -13 21 -13 12 0 17 -4 13 -11 -4 -7 -21 -9 -40 -6 -25 4 -34 2 -34 -9 0 -17
-26 -19 -34 -1 -3 6 -3 1 0 -11 5 -20 3 -23 -13 -18 -10 3 -25 1 -33 -4 -11
-7 -12 -10 -2 -10 10 0 10 -4 -2 -16 -14 -14 -18 -14 -31 0 -8 8 -24 18 -35
21 -23 7 -27 25 -5 25 8 0 15 5 15 10 0 6 -18 9 -41 8 -35 -3 -42 0 -45 17 -2
11 -11 27 -21 35 -10 9 -23 25 -29 35 -6 11 -18 20 -27 20 -9 0 -19 4 -23 8
-4 4 0 7 9 7 9 0 19 5 23 11 4 7 0 9 -14 5 -13 -4 -22 -1 -26 9 -3 8 -15 15
-26 15 -24 0 -27 20 -2 21 16 1 16 2 0 6 -10 2 -18 10 -18 17 0 7 -9 23 -20
36 -11 13 -20 29 -20 36 0 20 19 27 35 14 16 -13 19 -6 16 33 -1 9 3 17 8 17
6 0 11 -11 11 -25 0 -27 9 -32 28 -13 15 15 16 28 2 28 -6 0 -17 6 -24 12 -11
11 -11 15 2 24 12 9 9 13 -17 24 -23 9 -29 16 -21 25 8 10 -3 14 -47 20 -167
20 -273 41 -288 56 -7 9 -3 10 15 6 14 -3 52 -8 85 -12 55 -6 58 -5 40 9 -11
8 -24 19 -30 24 -5 4 -18 11 -27 15 -10 3 -18 14 -18 23 0 10 -5 14 -16 10 -8
-3 -12 -2 -9 4 3 6 2 10 -3 10 -12 0 -64 52 -57 58 2 3 11 -1 20 -8 9 -7 19
-10 23 -6 9 10 -28 37 -40 30 -15 -9 -38 17 -38 42 0 28 9 30 36 8 19 -15 18
-15 -3 -9 -15 4 -21 2 -19 -9 1 -9 6 -19 11 -23 4 -4 5 -2 1 5 -9 15 20 17 30
1 3 -6 14 -9 24 -6 14 3 17 1 13 -11 -4 -8 -2 -13 3 -9 5 3 31 1 57 -4 33 -6
55 -5 73 3 22 10 28 9 39 -5 8 -12 15 -14 20 -8 3 6 1 11 -4 11 -6 0 -11 5
-11 11 0 6 14 1 30 -11 17 -12 30 -17 30 -12 0 18 73 6 101 -17 23 -18 78 -21
72 -3 -6 16 -2 15 32 -2 26 -14 29 -13 48 10 16 20 22 23 29 12 7 -10 11 -10
14 -1 7 15 44 -5 44 -24 0 -6 5 -15 10 -18 16 -10 50 5 50 21 0 8 7 14 15 14
8 0 15 5 15 10 0 6 -4 10 -10 10 -15 0 -12 17 4 23 10 4 13 1 9 -8 -3 -8 2
-18 11 -21 9 -3 14 -9 12 -13 -3 -4 4 -12 14 -19 26 -16 32 -2 17 37 -10 27
-9 33 3 41 8 5 22 9 30 9 11 -1 10 -3 -3 -6 -9 -2 -14 -9 -11 -15 4 -7 2 -8
-4 -4 -7 4 -12 1 -12 -6 0 -8 14 -22 30 -31 33 -20 43 -4 13 19 -16 12 -16 13
-1 14 12 0 15 7 13 28 -5 42 27 55 61 24 23 -22 54 -35 54 -22 0 5 -4 12 -10
15 -5 3 -10 11 -10 16 0 6 4 8 9 4 5 -3 12 -1 16 5 3 5 15 10 26 10 14 0 19
-7 19 -30 0 -16 4 -30 9 -30 16 0 -2 -52 -21 -59 -18 -6 -18 -8 -4 -20 13 -11
18 -10 30 1 17 17 62 143 76 214 35 175 54 330 40 339 -10 6 -92 24 -138 29
-19 2 -37 7 -40 11 -12 13 107 -3 153 -21z m-1220 -4 c3 -5 0 -7 -8 -4 -8 3
-17 -2 -21 -11 -3 -9 -11 -13 -16 -10 -8 5 -7 11 1 21 13 16 35 18 44 4z m485
-44 c0 -11 -19 -15 -25 -6 -3 5 1 10 9 10 9 0 16 -2 16 -4z m630 -36 c0 -5 -4
-10 -10 -10 -5 0 -10 5 -10 10 0 6 5 10 10 10 6 0 10 -4 10 -10z m-717 -36
c-6 -16 -19 -18 -28 -4 -3 6 -2 10 4 10 6 0 7 8 4 18 -6 15 -5 15 10 4 8 -8
13 -20 10 -28z m7 -34 c6 0 8 5 5 10 -3 6 -2 10 3 10 5 0 12 -9 15 -20 3 -13
0 -20 -8 -20 -24 0 -65 19 -65 30 0 7 6 8 19 0 11 -5 25 -10 31 -10z m710 10
c0 -5 -2 -10 -4 -10 -3 0 -8 5 -11 10 -3 6 -1 10 4 10 6 0 11 -4 11 -10z m5
-127 c0 -16 -4 -27 -9 -25 -8 2 -11 37 -7 70 3 18 17 -21 16 -45z m-1061 -28
c3 -8 2 -15 -3 -15 -5 0 -14 7 -21 15 -10 12 -10 15 3 15 8 0 17 -7 21 -15z
m1062 -50 c-1 -41 -7 -44 -22 -11 -10 21 -5 32 22 45 1 1 1 -15 0 -34z m-1206
-95 c0 -5 -5 -10 -11 -10 -5 0 -7 5 -4 10 3 6 8 10 11 10 2 0 4 -4 4 -10z m33
-21 c4 -16 3 -18 -9 -8 -7 6 -11 15 -8 20 8 13 11 11 17 -12z m-13 -39 c-8 -5
-19 -10 -25 -10 -5 0 -3 5 5 10 8 5 20 10 25 10 6 0 3 -5 -5 -10z m30 -20 c0
-5 10 -19 23 -31 19 -19 19 -21 3 -15 -16 5 -17 4 -6 -9 7 -8 8 -15 2 -15 -5
0 -19 18 -30 40 -15 31 -16 40 -6 40 8 0 14 -4 14 -10z m317 4 c-3 -3 -12 -4
-19 -1 -8 3 -5 6 6 6 11 1 17 -2 13 -5z m-250 -26 c-3 -8 -6 -5 -6 6 -1 11 2
17 5 13 3 -3 4 -12 1 -19z m1150 -110 c-3 -8 -6 -5 -6 6 -1 11 2 17 5 13 3 -3
4 -12 1 -19z m-269 -165 c-10 -2 -26 -2 -35 0 -10 3 -2 5 17 5 19 0 27 -2 18
-5z m-492 -39 c-8 -8 -19 -14 -25 -14 -18 0 -12 28 7 33 26 5 34 -3 18 -19z
m401 -34 c-1 -11 -5 -20 -9 -20 -4 0 -8 9 -8 20 0 11 4 20 9 20 6 0 9 -9 8
-20z m136 -47 c-7 -2 -21 -2 -30 0 -10 3 -4 5 12 5 17 0 24 -2 18 -5z m302
-388 c-3 -82 -8 -220 -10 -305 -5 -201 -15 -343 -24 -353 -12 -12 -123 163
-118 187 3 12 23 81 46 154 23 74 41 144 41 156 0 13 3 26 7 29 3 4 8 18 9 32
1 14 7 58 13 98 5 39 13 108 17 152 7 77 7 79 16 40 5 -22 7 -107 3 -190z
m-3705 194 c0 -5 -6 -9 -12 -9 -28 0 40 -27 100 -40 34 -7 65 -17 68 -21 8
-14 -107 0 -131 15 -35 23 -96 31 -106 15 -10 -17 -115 -18 -144 -2 -18 11
-18 12 10 18 17 3 49 12 72 18 50 15 143 19 143 6z m1937 -75 c-3 -3 -12 -4
-19 -1 -8 3 -5 6 6 6 11 1 17 -2 13 -5z m1323 -32 c0 -8 -1 -13 -3 -11 -1 2
-9 12 -16 22 -12 15 -12 17 3 11 9 -3 16 -13 16 -22z m-3315 -42 c3 -5 -1 -10
-9 -10 -9 0 -16 5 -16 10 0 6 4 10 9 10 6 0 13 -4 16 -10z m3250 0 c3 -5 1
-10 -4 -10 -6 0 -11 5 -11 10 0 6 2 10 4 10 3 0 8 -4 11 -10z m-3670 -60 c-3
-5 -10 -10 -16 -10 -5 0 -9 5 -9 10 0 6 7 10 16 10 8 0 12 -4 9 -10z m90 -9
c18 -1 18 -3 -5 -21 -14 -11 -32 -20 -40 -20 -9 0 -21 -5 -27 -11 -6 -6 -16
-8 -22 -4 -8 4 -6 11 4 21 8 9 15 21 15 28 0 7 12 11 28 10 15 -1 36 -3 47 -3z
m123 -110 c-7 -11 -16 -17 -22 -14 -5 3 -1 12 9 20 25 18 27 17 13 -6z m2172
14 c0 -2 -10 -9 -22 -15 -22 -11 -22 -10 -4 4 21 17 26 19 26 11z m20 -15 c0
-5 -5 -10 -11 -10 -5 0 -7 5 -4 10 3 6 8 10 11 10 2 0 4 -4 4 -10z m-2810 -30
c0 -5 -5 -10 -11 -10 -5 0 -8 -4 -4 -9 3 -5 1 -12 -5 -16 -6 -4 -8 -10 -5 -14
2 -5 -12 -26 -32 -47 -21 -22 -36 -43 -35 -48 2 -4 -2 -14 -8 -21 -6 -7 -8
-20 -4 -29 4 -11 1 -16 -10 -16 -16 0 -32 -42 -22 -58 3 -5 0 -15 -8 -21 -7
-6 -16 -25 -20 -41 -3 -18 -12 -30 -22 -30 -12 0 -15 -10 -14 -42 3 -68 1 -78
-14 -78 -8 0 -16 -5 -18 -10 -2 -6 -13 -12 -26 -15 -30 -5 -43 -15 -37 -25 7
-11 -38 -60 -55 -60 -7 0 -10 -3 -7 -7 12 -12 -34 -52 -52 -45 -14 5 -14 4 -1
-13 13 -16 13 -18 0 -13 -8 3 -30 -2 -49 -9 -21 -9 -37 -11 -43 -5 -6 6 4 14
28 22 33 11 36 14 19 21 -17 6 -17 8 -2 8 10 1 17 9 17 21 0 11 4 20 8 20 5 0
14 10 19 23 7 14 26 28 50 35 22 6 49 23 62 36 l22 24 -23 17 c-14 10 -16 15
-6 12 12 -4 15 -2 12 8 -3 8 3 27 13 42 19 27 49 87 54 108 4 15 26 35 39 35
7 0 9 7 6 16 -3 8 -2 13 2 10 5 -3 17 13 26 35 14 31 23 40 37 36 10 -3 19 -1
19 4 0 5 -4 9 -10 9 -5 0 1 19 15 43 13 23 28 41 33 40 5 -1 15 14 22 33 13
31 40 48 40 24z m600 -21 c0 -5 -10 -10 -22 -10 -78 -5 -97 -9 -160 -36 -41
-17 -54 -39 -37 -60 9 -10 9 -20 -2 -39 -10 -20 -10 -29 -1 -44 10 -17 9 -18
-6 -13 -9 4 -20 11 -23 16 -7 9 -49 -12 -49 -25 0 -5 11 -8 25 -8 14 0 25 -5
25 -11 0 -7 -10 -9 -25 -5 -17 4 -25 2 -25 -6 0 -7 -9 -19 -20 -26 -18 -11
-20 -10 -20 8 0 13 -7 20 -20 20 -22 0 -27 -16 -7 -23 6 -2 9 -8 4 -12 -4 -5
-14 0 -21 11 -10 14 -11 21 -3 26 6 4 8 10 4 14 -4 4 -18 -3 -31 -15 -13 -12
-26 -18 -30 -13 -3 5 6 20 19 32 14 13 25 29 25 37 0 7 4 13 8 13 4 0 35 25
67 56 53 50 101 87 154 119 21 12 171 7 171 -6z m-1180 -248 c0 -5 -7 -12 -16
-15 -14 -5 -15 -4 -4 9 14 17 20 19 20 6z m990 -1 c0 -5 -4 -10 -10 -10 -5 0
-10 5 -10 10 0 6 5 10 10 10 6 0 10 -4 10 -10z m-60 -20 c0 -5 -7 -10 -15 -10
-8 0 -15 5 -15 10 0 6 7 10 15 10 8 0 15 -4 15 -10z m-148 -42 c-7 -7 -12 -19
-12 -27 0 -11 3 -12 11 -4 20 20 35 4 31 -31 -3 -29 -7 -33 -25 -29 -21 5 -22
5 -3 -9 19 -15 19 -16 -3 -23 -18 -5 -29 -1 -46 18 -15 19 -28 24 -44 20 -12
-3 -34 0 -48 8 -24 13 -27 12 -57 -21 -17 -19 -44 -42 -61 -50 -31 -16 -75
-57 -75 -71 0 -4 8 -10 18 -12 11 -3 8 -5 -9 -6 -15 0 -32 -8 -40 -17 -11 -14
-13 -14 -22 2 -8 14 -2 24 29 50 84 71 128 110 149 132 12 12 27 22 33 22 6 0
16 9 22 20 6 11 23 23 38 26 15 4 33 11 40 17 9 7 12 3 12 -13 0 -23 0 -22 26
5 19 20 28 25 37 16 8 -8 8 -14 -1 -23z m2725 -4 c-3 -3 -12 -4 -19 -1 -8 3
-5 6 6 6 11 1 17 -2 13 -5z m653 -15 c0 -4 -7 -6 -15 -3 -8 4 -15 10 -15 15 0
4 7 6 15 3 8 -4 15 -10 15 -15z m-1595 -28 c0 -21 -3 -27 -11 -20 -7 5 -10 19
-7 29 8 30 19 24 18 -9z m-2675 16 c0 -2 -10 -12 -21 -23 -22 -19 -22 -19 -10
4 10 18 31 31 31 19z m3694 -16 c3 -5 -5 -16 -19 -25 -14 -9 -25 -12 -25 -6 0
5 5 10 10 10 6 0 10 7 10 15 0 16 16 20 24 6z m516 -22 c0 -6 -6 -17 -14 -25
-19 -18 -32 0 -14 20 15 18 28 20 28 5z m-69 -30 c10 -19 -4 -28 -16 -10 -7
12 -54 4 -74 -12 -11 -9 -15 -9 -19 2 -3 8 -7 9 -11 3 -3 -6 -20 -14 -36 -18
-30 -7 -30 -7 -14 17 13 18 26 24 56 25 21 0 48 6 58 11 23 13 42 7 56 -18z
m-3383 -14 c-3 -3 -9 2 -12 12 -6 14 -5 15 5 6 7 -7 10 -15 7 -18z m2008 -4
c-5 -8 -11 -7 -20 2 -10 9 -11 14 -2 19 14 9 30 -7 22 -21z m-2856 -5 c0 -3
-4 -8 -10 -11 -5 -3 -10 -1 -10 4 0 6 5 11 10 11 6 0 10 -2 10 -4z m2820 -15
c0 -9 -24 -21 -43 -21 -6 0 -2 7 9 15 22 17 34 19 34 6z m1033 -5 c22 -17 22
-22 -2 -29 -14 -3 -18 -1 -14 9 3 8 0 14 -6 14 -6 0 -11 5 -11 10 0 13 11 12
33 -4z m625 2 c-2 -6 -10 -14 -16 -16 -7 -2 -10 2 -6 12 7 18 28 22 22 4z
m-548 -18 c0 -5 -4 -10 -10 -10 -5 0 -10 5 -10 10 0 6 5 10 10 10 6 0 10 -4
10 -10z m510 0 c0 -5 -5 -10 -11 -10 -5 0 -7 5 -4 10 3 6 8 10 11 10 2 0 4 -4
4 -10z m-4470 -14 c0 -11 -61 -68 -67 -62 -7 7 46 66 59 66 4 0 8 -2 8 -4z
m4530 -6 c0 -5 -7 -10 -15 -10 -8 0 -15 5 -15 10 0 6 7 10 15 10 8 0 15 -4 15
-10z m-3520 -40 c0 -11 -5 -20 -12 -20 -6 0 -8 3 -5 7 4 3 2 12 -4 20 -9 10
-8 13 5 13 9 0 16 -8 16 -20z m1785 -10 c3 -5 1 -10 -4 -10 -6 0 -11 5 -11 10
0 6 2 10 4 10 3 0 8 -4 11 -10z m-1835 -30 c8 -15 17 -19 33 -15 20 6 21 5 5
-8 -10 -8 -18 -23 -18 -34 0 -13 -11 -23 -35 -32 -19 -7 -35 -17 -35 -22 0 -5
-4 -9 -10 -9 -5 0 -10 5 -10 11 0 6 -11 20 -25 31 -28 22 -35 68 -10 68 8 0
15 4 15 9 0 8 17 13 67 20 7 0 17 -8 23 -19z m-1030 -10 c0 -11 -4 -20 -10
-20 -5 0 -10 -10 -10 -22 -1 -22 -1 -22 -12 -4 -8 15 -7 21 5 28 9 5 14 15 11
23 -4 8 -1 15 5 15 6 0 11 -9 11 -20z m680 10 c0 -5 -4 -10 -10 -10 -5 0 -10
5 -10 10 0 6 5 10 10 10 6 0 10 -4 10 -10z m-45 -58 c-3 -3 -11 0 -18 7 -9 10
-8 11 6 5 10 -3 15 -9 12 -12z m2795 -2 c0 -4 -9 -10 -20 -13 -22 -6 -23 -5
-14 17 6 14 34 12 34 -4z m-2815 -10 c3 -6 -1 -7 -9 -4 -18 7 -21 14 -7 14 6
0 13 -4 16 -10z m-665 -10 c0 -5 -4 -10 -10 -10 -5 0 -10 5 -10 10 0 6 5 10
10 10 6 0 10 -4 10 -10z m3556 -11 c3 -6 1 -15 -6 -19 -7 -4 -10 -13 -6 -19 5
-7 1 -9 -9 -5 -9 4 -14 13 -11 20 3 8 1 14 -4 14 -6 0 -10 5 -10 10 0 14 37
13 46 -1z m-3051 -9 c-3 -5 -10 -10 -16 -10 -5 0 -9 5 -9 10 0 6 7 10 16 10 8
0 12 -4 9 -10z m99 -5 c4 -10 -3 -20 -19 -27 -14 -6 -25 -14 -25 -18 0 -4 -8
-10 -17 -14 -10 -3 -29 -10 -43 -16 -18 -8 -14 -2 14 22 21 18 46 41 54 51 20
21 28 22 36 2z m-704 -10 c-7 -8 -20 -15 -29 -15 -13 1 -13 3 3 15 26 19 42
19 26 0z m93 -25 c17 -20 16 -20 -10 -14 -25 7 -26 5 -15 -9 11 -12 11 -19 1
-35 -14 -22 -41 -19 -32 4 3 8 9 11 14 8 5 -3 9 0 9 5 0 6 -4 11 -9 11 -5 0
-4 11 2 25 14 30 18 31 40 5z m2892 -10 c3 -5 -1 -10 -9 -10 -9 0 -16 5 -16
10 0 6 4 10 9 10 6 0 13 -4 16 -10z m603 -7 c-6 -7 -12 -13 -13 -13 -2 0 -5 6
-8 13 -3 7 3 13 14 13 13 0 15 -3 7 -13z m-2442 -20 c-8 -35 -50 -73 -80 -73
-13 0 -36 -11 -52 -25 -17 -15 -42 -25 -59 -25 l-30 0 29 -15 c15 -8 34 -15
42 -15 8 0 5 -8 -9 -24 -12 -13 -30 -35 -39 -49 -10 -14 -28 -27 -40 -29 -13
-2 -23 -10 -23 -18 0 -9 -12 -16 -30 -18 -16 -2 -34 -7 -40 -12 -5 -5 -27 -11
-47 -15 -20 -4 -44 -16 -54 -26 -9 -10 -24 -19 -33 -19 -9 0 -27 -10 -41 -23
-14 -13 -32 -22 -40 -20 -13 4 -13 3 0 -6 17 -12 16 -13 -32 -40 -21 -11 -38
-16 -38 -10 0 5 -5 7 -10 4 -6 -4 -8 -11 -5 -16 4 -5 2 -9 -4 -9 -5 0 -12 4
-16 10 -3 5 -12 7 -20 4 -8 -4 -12 -10 -9 -15 3 -5 0 -9 -7 -9 -8 0 -8 -4 1
-15 10 -12 9 -15 -5 -15 -10 0 -27 -7 -37 -16 -15 -14 -20 -15 -35 -3 -16 13
-17 12 -4 -4 8 -9 11 -20 8 -23 -7 -7 -47 14 -47 25 0 13 92 101 105 101 7 0
29 16 49 35 21 19 42 35 47 35 6 0 23 15 40 32 16 18 29 28 29 23 0 -6 5 -2
11 8 5 9 19 17 29 17 10 0 25 9 33 20 8 11 20 18 28 16 21 -8 64 31 52 47 -18
22 -22 95 -7 108 11 9 14 7 15 -12 l0 -24 9 23 c6 14 18 22 34 22 14 0 28 5
31 10 3 6 17 10 30 10 13 0 31 7 39 16 9 8 16 11 16 5 0 -16 16 -14 34 4 16
17 51 21 41 5 -3 -6 1 -7 9 -4 9 3 16 12 16 19 0 8 9 11 24 8 13 -3 27 0 30 6
4 6 16 11 27 11 10 0 19 7 19 15 0 8 5 15 11 15 7 0 9 -10 5 -27z m2518 3 c-6
-16 -24 -13 -24 5 0 6 5 7 10 4 6 -3 10 -1 10 6 0 7 2 10 5 7 3 -3 3 -13 -1
-22z m-2746 7 c-10 -2 -26 -2 -35 0 -10 3 -2 5 17 5 19 0 27 -2 18 -5z m-348
-43 c0 -5 -4 -10 -10 -10 -5 0 -10 5 -10 10 0 6 5 10 10 10 6 0 10 -4 10 -10z
m2966 -24 c0 -14 -6 -22 -13 -19 -16 6 -16 16 -1 31 16 16 16 16 14 -12z
m-3481 4 c3 -6 3 -20 0 -31 -6 -17 -9 -19 -16 -8 -10 15 -13 -2 -9 -53 1 -20
-3 -28 -15 -28 -10 0 -13 5 -9 12 4 6 7 27 6 46 -2 52 25 91 43 62z m485 -15
c-16 -19 -7 -31 38 -52 l37 -18 -30 -4 c-27 -3 -28 -4 -10 -12 15 -7 13 -8
-12 -5 -22 4 -35 1 -41 -10 -7 -13 -11 -13 -37 0 -16 8 -33 12 -39 8 -16 -9
20 43 48 71 14 14 27 22 30 19 3 -3 6 0 6 6 0 7 5 12 11 12 8 0 8 -4 -1 -15z
m3434 -6 c-10 -4 -14 -8 -9 -8 6 -1 3 -6 -5 -11 -13 -9 -13 -11 0 -21 13 -9
13 -10 0 -6 -8 2 -14 12 -14 21 1 9 -3 16 -9 16 -6 0 -2 6 8 14 11 8 26 11 34
8 12 -4 11 -7 -5 -13z m-59 -17 c-3 -3 -11 0 -18 7 -9 10 -8 11 6 5 10 -3 15
-9 12 -12z m183 -8 c-15 -16 -15 -18 5 -36 21 -19 21 -19 1 -9 -15 7 -24 7
-32 -1 -7 -7 -15 -8 -19 -4 -4 4 -1 11 7 16 8 6 12 10 8 10 -12 0 25 40 36 40
6 0 3 -7 -6 -16z m-3398 -59 c0 -8 -4 -17 -10 -20 -6 -4 -10 5 -10 20 0 15 4
24 10 20 6 -3 10 -12 10 -20z m3326 5 c8 0 14 -5 14 -11 0 -7 11 -9 30 -5 17
3 30 1 30 -4 0 -5 -12 -10 -27 -12 -23 -2 -28 -8 -25 -26 2 -22 1 -22 -15 -6
-9 9 -18 24 -19 33 -1 9 -4 23 -6 31 -3 8 -3 12 -1 8 3 -5 11 -8 19 -8z
m-3568 -81 c-10 -16 -13 -27 -8 -24 5 3 7 0 4 -8 -7 -19 -49 -41 -62 -33 -13
8 -3 46 12 43 6 -1 10 10 9 27 -2 23 1 27 16 23 15 -3 17 0 13 17 -4 20 -4 20
14 3 18 -17 18 -19 2 -48z m572 51 c0 -5 -4 -10 -10 -10 -5 0 -10 5 -10 10 0
6 5 10 10 10 6 0 10 -4 10 -10z m-1003 -26 c-3 -3 -12 -4 -19 -1 -8 3 -5 6 6
6 11 1 17 -2 13 -5z m4159 -22 c-4 -3 -14 2 -24 12 -16 18 -16 18 6 6 13 -6
21 -14 18 -18z m-3699 -4 c-3 -8 -6 -5 -6 6 -1 11 2 17 5 13 3 -3 4 -12 1 -19z
m183 3 c0 -12 -20 -25 -27 -18 -7 7 6 27 18 27 5 0 9 -4 9 -9z m3446 -6 c31 6
64 -9 51 -22 -5 -4 -12 -2 -16 6 -6 10 -10 9 -15 -4 -4 -11 -12 -15 -24 -11
-13 5 -13 3 3 -11 12 -10 25 -27 29 -38 8 -20 8 -20 15 -1 5 13 10 16 15 8 4
-6 2 -21 -4 -32 -7 -14 -8 -26 0 -39 16 -30 12 -43 -10 -36 -13 4 -23 0 -32
-14 -16 -26 -24 -26 -31 -1 -5 18 -7 19 -34 5 -15 -8 -35 -15 -43 -15 -8 0 -4
6 10 13 14 7 31 25 38 40 15 32 47 38 37 7 -4 -13 -2 -20 7 -20 16 0 44 17 38
22 -3 2 -18 12 -34 22 l-28 18 -27 -33 c-19 -23 -30 -29 -35 -20 -5 7 3 22 19
37 26 24 29 52 6 47 -13 -3 -15 23 -3 31 5 3 15 -4 22 -15 8 -10 22 -19 31
-19 10 0 20 -6 22 -12 4 -8 6 -7 6 4 1 9 -12 20 -30 27 -23 8 -30 15 -25 27 4
9 1 24 -6 33 -11 14 -11 14 3 3 9 -7 29 -10 45 -7z m89 -5 c-4 -6 -1 -18 7
-27 10 -13 10 -15 0 -9 -7 4 -19 2 -27 -4 -20 -16 -19 -5 1 25 15 24 32 37 19
15z m50 -48 c0 -36 -9 -30 -19 11 -5 21 -3 28 6 25 7 -3 13 -19 13 -36z m121
-9 c-10 -10 -19 5 -10 18 6 11 8 11 12 0 2 -7 1 -15 -2 -18z m-86 -8 c0 -8 -4
-15 -10 -15 -5 0 -7 7 -4 15 4 8 8 15 10 15 2 0 4 -7 4 -15z m-3894 -28 c1 -9
-4 -17 -11 -17 -14 0 -27 25 -17 34 10 10 25 1 28 -17z m2535 -10 c-10 -9 -11
-8 -5 6 3 10 9 15 12 12 3 -3 0 -11 -7 -18z m64 3 c3 -5 2 -10 -4 -10 -5 0
-13 5 -16 10 -3 6 -2 10 4 10 5 0 13 -4 16 -10z m1221 -12 c4 -6 3 -8 -4 -4
-6 3 -13 2 -17 -4 -3 -5 -12 -10 -18 -10 -7 0 -3 7 7 15 24 18 23 18 32 3z
m117 -23 c-10 -7 -20 -12 -21 -10 -7 7 23 33 31 28 5 -3 0 -11 -10 -18z
m-1283 -5 c0 -5 -2 -10 -4 -10 -3 0 -8 5 -11 10 -3 6 -1 10 4 10 6 0 11 -4 11
-10z m-2230 -33 c27 -12 30 -16 14 -16 -12 -1 -27 -8 -34 -16 -7 -8 -16 -15
-21 -15 -5 0 -9 7 -9 15 0 8 7 15 15 15 8 0 15 5 15 10 0 6 -5 10 -11 10 -16
0 -39 -26 -39 -44 0 -9 -4 -16 -9 -16 -6 0 -6 12 -1 31 5 18 7 35 5 40 -6 9
28 18 35 8 3 -4 21 -14 40 -22z m2304 -18 c-3 -5 -14 -5 -25 1 -26 14 -24 18
6 12 14 -2 22 -8 19 -13z m946 -23 c0 -3 -4 -8 -10 -11 -5 -3 -10 -1 -10 4 0
6 5 11 10 11 6 0 10 -2 10 -4z m-166 -22 c3 -8 2 -12 -4 -9 -6 3 -10 10 -10
16 0 14 7 11 14 -7z m-2792 -28 c12 -17 9 -23 -13 -29 -15 -4 -19 -2 -15 9 10
27 -40 15 -67 -16 -15 -16 -37 -30 -48 -30 -14 0 -19 -5 -16 -14 6 -16 -7 -29
-38 -39 -20 -7 -20 -7 0 8 16 13 17 17 6 24 -9 6 -10 11 -2 15 6 4 9 11 7 15
-3 4 14 16 37 26 90 38 107 48 101 57 -9 13 39 -12 48 -26z m2685 15 c3 -13
11 -18 21 -14 13 3 12 1 -3 -12 -18 -14 -20 -14 -23 -1 -4 20 -21 21 -28 3 -8
-23 -32 -16 -26 7 10 38 50 50 59 17z m238 9 c3 -6 -1 -7 -9 -4 -18 7 -21 14
-7 14 6 0 13 -4 16 -10z m-32 -21 c4 -16 3 -18 -9 -8 -16 13 -19 29 -5 29 5 0
11 -9 14 -21z m-3294 -62 c1 -5 -5 -7 -11 -5 -7 3 -21 -6 -32 -19 -22 -29 -37
-19 -29 19 6 33 54 55 65 29 4 -9 7 -20 7 -24z m3246 34 c3 -5 1 -12 -5 -16
-5 -3 -10 1 -10 9 0 18 6 21 15 7z m-519 -16 c9 -8 11 -15 5 -15 -6 0 -8 -7
-5 -15 4 -9 0 -15 -10 -15 -9 0 -16 8 -16 18 0 14 -2 15 -10 2 -5 -8 -10 -27
-10 -42 0 -22 -4 -26 -17 -21 -11 4 -13 8 -5 11 7 2 9 8 6 13 -3 6 -1 16 6 24
7 8 7 15 1 19 -5 3 -18 -5 -28 -18 -21 -26 -45 -22 -49 8 -3 18 7 21 22 6 7
-7 18 -5 35 8 20 16 41 27 57 31 2 1 10 -6 18 -14z m394 -9 c0 -11 -19 -15
-25 -6 -3 5 1 10 9 10 9 0 16 -2 16 -4z m-245 -54 c-3 -3 -5 0 -5 7 0 7 -4 9
-10 6 -11 -7 -14 18 -3 29 4 4 11 -3 15 -15 5 -12 6 -24 3 -27z m365 33 c0 -8
-4 -15 -10 -15 -5 0 -10 7 -10 15 0 8 5 15 10 15 6 0 10 -7 10 -15z m-3340
-47 c0 -16 -3 -19 -11 -11 -6 6 -8 16 -5 22 11 17 16 13 16 -11z m2817 6 c-3
-3 -12 -4 -19 -1 -8 3 -5 6 6 6 11 1 17 -2 13 -5z m97 -17 c-18 -31 -38 -47
-44 -36 -4 6 2 21 14 33 21 23 42 24 30 3z m-2954 -28 c0 -5 -9 -9 -20 -9 -11
0 -20 4 -20 8 0 4 9 8 20 9 11 1 20 -2 20 -8z m2831 -20 c11 -5 17 -14 14 -20
-4 -5 -11 -6 -17 -3 -6 4 -14 0 -19 -7 -6 -10 -9 -6 -9 14 0 30 3 32 31 16z
m214 -99 c-3 -5 -11 -10 -16 -10 -6 0 -7 5 -4 10 3 6 11 10 16 10 6 0 7 -4 4
-10z m-2981 -45 c3 -10 -2 -10 -25 -2 -16 6 -29 14 -29 18 0 11 49 -3 54 -16z
m106 -75 c0 -5 -4 -10 -10 -10 -5 0 -10 5 -10 10 0 6 5 10 10 10 6 0 10 -4 10
-10z m5697 -6 c3 -8 0 -21 -6 -27 -10 -9 -16 -8 -26 7 -8 10 -12 23 -9 27 9
15 34 10 41 -7z m-5657 -42 c0 -10 -4 -10 -16 2 -8 9 -12 21 -8 27 7 13 24 -7
24 -29z m5105 28 c3 -6 -1 -13 -10 -16 -19 -8 -30 0 -20 15 8 14 22 14 30 1z
m-4955 -16 c0 -7 6 -15 13 -17 25 -11 -18 -26 -55 -21 -30 5 -37 3 -41 -12 -4
-16 -5 -16 -6 3 0 12 7 27 17 32 12 8 14 13 5 19 -7 4 5 7 28 7 23 0 39 -4 39
-11z m5043 -1 c8 -7 -11 -33 -24 -33 -5 0 -9 9 -9 20 0 19 20 27 33 13z
m-4876 -90 c-4 -3 0 -14 8 -23 14 -15 12 -16 -15 -12 -33 5 -41 28 -12 35 9 3
19 5 21 6 2 0 1 -2 -2 -6z m-23 -158 c3 -8 2 -15 -3 -15 -5 0 -14 7 -21 15
-10 12 -10 15 3 15 8 0 17 -7 21 -15z m46 5 c0 -5 -2 -10 -4 -10 -3 0 -8 5
-11 10 -3 6 -1 10 4 10 6 0 11 -4 11 -10z m145 -11 c7 -11 -22 -49 -37 -49
-12 0 -10 34 4 48 15 15 25 15 33 1z m265 -7 c0 -14 -11 -21 -26 -15 -8 3 -11
9 -8 14 7 11 34 12 34 1z m226 -51 c-11 -17 -25 -13 -21 7 2 9 4 19 4 22 1 2
6 -1 12 -7 6 -6 8 -16 5 -22z m-1459 -11 c-2 -31 -9 -34 -42 -20 -19 8 -19 9
4 9 16 1 21 5 18 15 -5 12 -1 17 20 25 1 1 1 -12 0 -29z m-31 -41 c4 -6 19 -9
36 -5 26 5 27 4 14 -9 -8 -8 -19 -15 -25 -15 -6 0 -11 -4 -11 -10 0 -5 4 -10
10 -10 5 0 7 -7 4 -15 -5 -12 -9 -12 -29 1 -12 8 -31 12 -41 8 -10 -3 -5 4 11
16 l30 22 -27 -6 c-32 -7 -36 1 -10 20 21 16 29 17 38 3z m884 -19 c0 -5 -2
-10 -4 -10 -3 0 -8 5 -11 10 -3 6 -1 10 4 10 6 0 11 -4 11 -10z m-878 -96 c-5
-22 -20 -34 -42 -33 -11 1 -10 3 3 6 9 2 15 9 11 14 -9 15 4 41 19 36 6 -2 10
-13 9 -23z m1365 9 c-9 -9 -20 -13 -24 -9 -4 4 -1 11 7 16 25 16 35 11 17 -7z
m1983 7 c0 -5 -12 -10 -27 -10 -22 0 -25 2 -13 10 20 13 40 13 40 0z m-3465
-50 c3 -6 -1 -13 -10 -16 -19 -8 -30 0 -20 15 8 14 22 14 30 1z m-20 -50 c-3
-5 -10 -10 -16 -10 -5 0 -9 5 -9 10 0 6 7 10 16 10 8 0 12 -4 9 -10z m1415
-60 c0 -5 -4 -10 -10 -10 -5 0 -10 5 -10 10 0 6 5 10 10 10 6 0 10 -4 10 -10z
m-12 -61 c-3 -20 -5 -19 -9 9 -3 20 -2 29 4 23 5 -5 7 -19 5 -32z m42 -60 c0
-3 -11 -12 -25 -19 -20 -11 -27 -11 -40 0 -15 12 -14 15 6 31 18 13 27 14 41
6 10 -7 18 -14 18 -18z m-1455 -129 c8 -13 -5 -13 -25 0 -13 8 -13 10 2 10 9
0 20 -4 23 -10z m-45 -16 c0 -8 -4 -12 -10 -9 -5 3 -10 10 -10 16 0 5 5 9 10
9 6 0 10 -7 10 -16z m1470 6 c0 -5 -4 -10 -10 -10 -5 0 -10 5 -10 10 0 6 5 10
10 10 6 0 10 -4 10 -10z m-1540 -90 c0 -5 -4 -10 -10 -10 -5 0 -10 5 -10 10 0
6 5 10 10 10 6 0 10 -4 10 -10z m1568 4 c28 -8 28 -22 -1 -57 -15 -20 -27 -26
-40 -22 -20 8 -23 55 -5 73 14 14 15 14 46 6z m66 -140 c8 -20 8 -24 -1 -24
-17 0 -35 19 -29 29 10 16 23 14 30 -5z"/>
<path d="M5001 4596 c2 -2 18 -6 34 -10 22 -5 26 -4 15 4 -14 9 -59 15 -49 6z"/>
<path d="M5540 4010 c0 -5 7 -10 16 -10 8 0 12 5 9 10 -3 6 -10 10 -16 10 -5
0 -9 -4 -9 -10z"/>
<path d="M5430 4001 c0 -6 4 -13 10 -16 6 -3 7 1 4 9 -7 18 -14 21 -14 7z"/>
<path d="M5550 3940 c0 -5 5 -10 10 -10 6 0 10 5 10 10 0 6 -4 10 -10 10 -5 0
-10 -4 -10 -10z"/>
<path d="M5556 3854 c-11 -8 -16 -14 -10 -14 13 0 39 18 34 24 -3 2 -14 -2
-24 -10z"/>
<path d="M5278 3848 c6 -6 18 -8 28 -6 14 3 12 5 -9 10 -19 3 -25 2 -19 -4z"/>
<path d="M5260 3818 c0 -5 5 -8 11 -8 5 0 7 -4 4 -10 -3 -5 -1 -10 4 -10 6 0
11 5 11 10 0 6 7 10 15 10 8 0 15 -4 15 -10 0 -5 6 -10 13 -10 7 0 13 9 13 19
0 16 -7 19 -43 18 -24 -1 -43 -5 -43 -9z"/>
<path d="M5448 3813 c7 -3 16 -2 19 1 4 3 -2 6 -13 5 -11 0 -14 -3 -6 -6z"/>
<path d="M4768 3773 c7 -3 16 -2 19 1 4 3 -2 6 -13 5 -11 0 -14 -3 -6 -6z"/>
<path d="M5418 3753 c-10 -2 -18 -9 -18 -14 0 -13 12 -11 34 6 20 15 16 17
-16 8z"/>
<path d="M5468 3733 c7 -3 16 -2 19 1 4 3 -2 6 -13 5 -11 0 -14 -3 -6 -6z"/>
<path d="M4978 3713 c-10 -2 -18 -9 -18 -14 0 -15 43 -7 48 9 4 12 0 13 -30 5z"/>
<path d="M5120 3711 c0 -4 11 -6 25 -3 14 2 25 6 25 8 0 2 -11 4 -25 4 -14 0
-25 -4 -25 -9z"/>
<path d="M5340 3700 c0 -5 5 -10 10 -10 6 0 10 5 10 10 0 6 -4 10 -10 10 -5 0
-10 -4 -10 -10z"/>
<path d="M5134 3674 c-32 -22 -21 -64 17 -64 34 0 37 10 9 28 -24 14 -26 32
-5 32 8 0 15 5 15 10 0 14 -11 12 -36 -6z"/>
<path d="M5070 3560 c0 -5 7 -10 16 -10 8 0 12 5 9 10 -3 6 -10 10 -16 10 -5
0 -9 -4 -9 -10z"/>
<path d="M5220 3340 c0 -5 5 -10 10 -10 6 0 10 5 10 10 0 6 -4 10 -10 10 -5 0
-10 -4 -10 -10z"/>
<path d="M5235 3304 c9 -9 19 -13 23 -10 3 4 0 11 -8 16 -24 15 -33 11 -15 -6z"/>
<path d="M1342 2588 c-16 -16 -15 -28 3 -28 8 0 15 9 15 20 0 23 -2 24 -18 8z"/>
<path d="M1267 2373 c-3 -3 1 -12 9 -20 8 -9 18 -13 21 -10 3 3 -1 13 -10 21
-8 8 -17 12 -20 9z"/>
<path d="M880 2026 c0 -10 8 -16 22 -16 12 0 19 1 17 3 -2 1 -12 9 -21 16 -15
12 -18 11 -18 -3z"/>
<path d="M1812 7383 c-38 -30 -64 -32 -167 -14 -141 24 -184 27 -289 16 -85
-9 -111 -9 -124 2 -25 18 -32 16 -32 -10 0 -13 -5 -28 -11 -34 -6 -6 -13 -32
-15 -58 -4 -55 -9 -65 -35 -65 -10 0 -19 -7 -19 -15 0 -8 -7 -15 -16 -15 -11
0 -14 -6 -9 -20 5 -16 2 -20 -17 -21 l-23 0 25 -12 25 -11 -27 -4 c-31 -4 -36
-16 -12 -30 9 -5 16 -13 16 -18 1 -5 11 -22 23 -39 30 -40 75 -126 75 -144 0
-8 7 -22 16 -32 17 -19 17 -17 -12 -144 -8 -31 -10 -40 -14 -52 -1 -5 -1 -16
-1 -26 1 -9 -5 -24 -14 -33 -9 -9 -14 -23 -11 -31 4 -8 -5 -18 -22 -26 -15 -6
-35 -22 -46 -35 -10 -13 -25 -21 -32 -18 -8 3 -26 -1 -41 -8 -57 -28 -99 -39
-158 -43 -51 -4 -63 -1 -83 17 -13 12 -39 24 -58 26 -20 2 -42 11 -50 19 -11
11 -45 13 -174 9 -106 -3 -167 -1 -181 6 -15 9 -24 8 -35 -1 -8 -6 -17 -9 -21
-6 -3 4 -15 1 -26 -5 -37 -20 -149 -6 -167 21 -3 5 -15 11 -27 15 l-23 7 0
-245 0 -246 33 -1 c86 -3 183 -10 194 -13 6 -3 13 -1 15 3 2 4 39 4 83 0 128
-13 589 -12 710 1 61 7 157 12 214 11 58 0 110 4 115 8 19 15 76 24 76 11 0
-17 42 -2 59 21 16 23 33 25 25 4 -4 -10 0 -15 14 -15 11 0 27 -6 34 -13 7 -7
28 -14 47 -15 18 -1 41 -6 50 -11 9 -5 79 -7 156 -4 192 5 245 4 283 -8 40
-13 62 -6 62 20 0 11 9 41 21 68 12 26 28 75 36 108 9 33 24 72 34 86 10 14
16 29 12 33 -3 3 -1 6 5 6 7 0 12 6 12 13 0 7 7 22 15 32 61 82 86 117 83 120
-2 2 -16 7 -31 10 -21 6 -27 4 -25 -6 2 -8 -2 -13 -9 -12 -7 2 -31 5 -55 7
-87 9 -137 44 -148 104 -4 23 -4 42 0 42 5 0 6 8 3 18 -5 19 56 91 93 111 40
20 131 25 156 9 13 -8 35 -18 51 -22 15 -3 27 -11 27 -16 0 -6 8 -10 19 -10
23 0 47 -25 31 -35 -5 -3 -10 -14 -10 -22 0 -13 7 -10 28 10 16 15 31 24 35
20 4 -3 7 -1 7 6 0 8 -7 11 -15 7 -8 -3 -15 -1 -15 4 0 6 6 10 13 10 6 0 28
13 47 30 27 23 30 28 12 23 -13 -3 -22 -1 -22 6 0 6 7 11 15 11 14 0 35 29 35
49 0 6 -6 11 -14 11 -17 0 -29 27 -16 35 5 3 19 1 31 -5 24 -13 38 -5 21 12
-7 7 -12 21 -12 31 0 10 -9 21 -19 24 -11 3 -17 11 -15 18 3 7 -3 26 -13 41
-9 15 -19 43 -20 62 -1 18 -7 40 -14 48 -6 8 -8 14 -5 14 4 0 -2 10 -14 22
-11 12 -20 34 -20 49 0 15 -4 31 -10 34 -5 3 -10 18 -10 33 0 22 -6 29 -36 39
-43 13 -96 0 -88 -22 3 -7 1 -16 -5 -20 -6 -3 -11 -14 -11 -25 0 -19 -25 -34
-42 -24 -6 4 -8 -2 -3 -16 7 -21 5 -22 -20 -16 -16 4 -33 2 -41 -5 -8 -6 -14
-9 -14 -5 0 4 -10 0 -22 -8 -13 -8 -39 -17 -58 -21 -19 -4 -40 -11 -46 -16
-22 -18 -135 -12 -156 9 -7 7 -20 12 -30 12 -10 0 -18 6 -18 14 0 7 -10 20
-22 29 -21 13 -23 23 -23 92 0 44 -4 80 -10 81 -5 2 -25 -9 -43 -23z m-562
-83 c0 -5 -4 -10 -10 -10 -5 0 -10 5 -10 10 0 6 5 10 10 10 6 0 10 -4 10 -10z
m1350 -445 c0 -8 -4 -15 -10 -15 -5 0 -10 7 -10 15 0 8 5 15 10 15 6 0 10 -7
10 -15z"/>
<path d="M3226 7395 c-3 -8 -1 -15 4 -15 6 0 10 7 10 15 0 8 -2 15 -4 15 -2 0
-6 -7 -10 -15z"/>
<path d="M3263 7296 c-28 -13 -30 -26 -4 -26 10 0 22 7 25 16 8 21 6 22 -21
10z"/>
<path d="M1066 7221 c-8 -12 18 -21 33 -11 10 5 8 9 -4 14 -21 8 -23 8 -29 -3z"/>
<path d="M5578 6973 c21 -4 32 -23 13 -23 -16 0 -7 -74 9 -78 11 -2 15 8 15
40 -1 53 -10 68 -38 67 -22 -2 -22 -2 1 -6z"/>
<path d="M2377 6549 c7 -7 15 -10 18 -7 3 3 -2 9 -12 12 -14 6 -15 5 -6 -5z"/>
<path d="M5498 6428 c-15 -15 -16 -18 -3 -18 9 0 18 7 22 15 8 23 0 24 -19 3z"/>
<path d="M5400 6423 c0 -6 11 -15 24 -21 19 -9 25 -8 30 4 3 8 -1 14 -8 14 -8
0 -21 3 -30 6 -9 3 -16 2 -16 -3z"/>
<path d="M5460 6369 c0 -5 5 -7 10 -4 6 3 10 8 10 11 0 2 -4 4 -10 4 -5 0 -10
-5 -10 -11z"/>
<path d="M5455 6333 c-7 -20 27 -53 54 -53 11 0 7 6 -11 18 -28 17 -36 32 -18
32 6 0 10 5 10 10 0 17 -27 11 -35 -7z"/>
<path d="M5500 6321 c0 -6 5 -13 10 -16 6 -3 10 1 10 9 0 9 -4 16 -10 16 -5 0
-10 -4 -10 -9z"/>
<path d="M5647 5907 c-3 -7 -2 -19 3 -26 5 -10 8 -9 13 2 3 7 2 19 -3 26 -5
10 -8 9 -13 -2z"/>
<path d="M5610 5568 c0 -7 5 -20 10 -28 8 -12 10 -11 10 7 0 12 -4 25 -10 28
-5 3 -10 0 -10 -7z"/>
<path d="M5517 5473 c-12 -12 -7 -22 8 -17 8 4 15 10 15 15 0 11 -14 12 -23 2z"/>
<path d="M5478 5433 c7 -3 16 -2 19 1 4 3 -2 6 -13 5 -11 0 -14 -3 -6 -6z"/>
<path d="M5525 5421 c-3 -5 -1 -12 5 -16 12 -7 30 2 30 16 0 12 -27 12 -35 0z"/>
<path d="M5460 5121 c0 -6 5 -13 10 -16 6 -3 10 1 10 9 0 9 -4 16 -10 16 -5 0
-10 -4 -10 -9z"/>
<path d="M5203 5038 c-28 -14 -30 -28 -3 -28 11 0 20 5 20 10 0 6 7 10 16 10
8 0 12 5 9 10 -7 12 -13 12 -42 -2z"/>
<path d="M5080 5020 c0 -5 5 -10 10 -10 6 0 10 5 10 10 0 6 -4 10 -10 10 -5 0
-10 -4 -10 -10z"/>
<path d="M3315 4990 l-40 -7 43 -2 c23 0 42 4 42 9 0 6 -1 9 -2 9 -2 -1 -21
-5 -43 -9z"/>
<path d="M3570 4992 c0 -4 9 -13 21 -20 17 -11 18 -16 8 -28 -7 -8 -15 -11
-18 -5 -3 5 -23 12 -44 15 -21 3 -46 10 -55 15 -21 11 -124 2 -116 -10 3 -5
-16 -9 -41 -9 -28 0 -44 4 -40 10 6 10 -25 2 -35 -9 -3 -3 -20 -12 -39 -18
-37 -13 -56 -8 -31 7 12 8 10 10 -8 10 -13 0 -20 4 -17 10 9 14 -10 12 -50 -4
-48 -20 -44 -27 13 -20 34 4 44 2 36 -6 -11 -11 -16 -12 -91 -25 -24 -4 -43
-11 -43 -16 0 -9 43 -14 85 -11 17 2 17 0 5 -8 -11 -8 -6 -9 20 -5 19 3 53 2
75 -3 l40 -10 -45 -2 c-25 -1 -69 -3 -97 -5 -29 -1 -53 2 -53 6 0 5 8 9 17 9
9 0 13 3 10 7 -10 9 -57 -18 -57 -34 0 -8 -12 -13 -32 -12 -31 1 -32 1 -8 9
23 7 19 10 -20 14 -8 0 -18 -3 -22 -9 -4 -5 -17 -3 -34 5 l-27 15 41 3 c24 2
40 7 37 12 -3 6 0 7 8 4 8 -3 18 -1 22 5 4 7 -4 11 -20 11 -16 0 -24 4 -20 11
5 7 -6 9 -31 7 -20 -2 -39 -9 -40 -16 -1 -7 0 -8 3 -2 7 14 24 13 21 -2 -2 -7
-15 -19 -30 -27 -32 -16 -38 -36 -8 -28 33 9 31 -8 -3 -23 -24 -11 -28 -15
-14 -18 9 -2 15 -7 12 -12 -3 -4 -15 -6 -28 -3 -12 3 -19 2 -15 -2 13 -14 -34
-39 -75 -41 -22 -1 -44 -7 -50 -13 -6 -6 -20 -11 -31 -11 -29 0 -16 -6 27 -14
26 -5 37 -4 33 3 -7 11 28 34 37 24 8 -7 -12 -27 -54 -52 -19 -12 -27 -21 -19
-22 12 0 11 -2 -2 -7 -9 -4 17 -8 58 -9 60 -2 75 1 71 11 -6 14 5 16 86 16 41
0 46 6 20 26 -16 12 -16 13 -2 14 9 0 37 -6 62 -14 26 -8 44 -10 41 -5 -8 14
28 10 56 -6 14 -8 34 -14 45 -13 17 0 17 1 3 5 -10 2 -18 9 -18 14 0 5 -3 8
-7 7 -13 -2 -43 14 -43 23 0 12 53 -1 61 -14 4 -5 13 -8 21 -5 7 3 19 0 25 -8
10 -10 10 -13 0 -17 -9 -3 -9 -8 2 -20 16 -20 14 -20 -27 -6 -21 7 -36 7 -49
0 -15 -8 -12 -10 18 -9 20 1 40 -1 45 -4 5 -3 81 -9 169 -13 88 -3 176 -10
195 -15 19 -5 77 -13 128 -19 51 -6 132 -20 179 -32 62 -16 88 -19 91 -11 2 7
10 12 18 12 8 0 14 5 14 10 0 6 -4 10 -9 10 -6 0 -13 -4 -16 -10 -3 -5 -15
-10 -26 -10 -10 0 -19 5 -19 10 0 6 9 10 19 10 11 0 23 5 26 10 3 6 1 10 -5
10 -7 0 -10 6 -7 13 2 6 15 12 28 11 13 -1 16 1 7 3 -28 7 -21 26 7 21 20 -4
25 0 30 23 4 16 10 29 14 29 10 0 41 79 41 103 0 9 5 17 10 17 6 0 10 5 10 11
0 6 -9 8 -21 4 -15 -5 -19 -4 -14 4 4 7 1 18 -5 27 -10 12 -16 12 -28 2 -13
-11 -15 -10 -9 5 4 12 1 20 -10 24 -9 4 -19 1 -21 -5 -5 -15 -32 -16 -32 -2 0
6 3 9 8 8 4 -2 7 2 7 7 0 6 -3 9 -7 8 -4 -2 -16 9 -26 22 -11 14 -23 25 -26
25 -11 0 -6 -19 10 -34 34 -35 -9 -13 -50 24 -48 44 -61 49 -53 21 3 -14 0
-17 -15 -13 -11 2 -22 10 -24 17 -4 8 -19 11 -48 8 -28 -4 -53 0 -74 11 -35
18 -42 19 -42 8z m-5 -102 c3 -6 -1 -7 -9 -4 -18 7 -21 14 -7 14 6 0 13 -4 16
-10z m320 -18 c-3 -3 -11 0 -18 7 -9 10 -8 11 6 5 10 -3 15 -9 12 -12z m-828
-48 c-3 -3 -12 -4 -19 -1 -8 3 -5 6 6 6 11 1 17 -2 13 -5z m-257 -108 c0 -2
-7 -7 -16 -10 -8 -3 -12 -2 -9 4 6 10 25 14 25 6z m413 -66 c-3 -11 -13 -20
-22 -20 -14 0 -14 2 -1 10 12 8 12 10 -5 11 l-20 0 20 9 c30 13 34 12 28 -10z
m747 10 c0 -5 -6 -10 -14 -10 -8 0 -18 5 -21 10 -3 6 3 10 14 10 12 0 21 -4
21 -10z"/>
<path d="M2050 4976 c0 -7 11 -30 25 -50 14 -20 25 -41 25 -46 0 -4 4 -10 9
-12 10 -3 127 -106 172 -150 16 -16 31 -28 34 -28 14 0 62 -59 54 -67 -5 -5 8
-16 31 -27 22 -9 40 -21 40 -26 0 -16 -21 -22 -38 -10 -9 7 1 -4 23 -24 29
-26 49 -36 74 -36 30 0 33 2 28 23 l-6 22 17 -22 c9 -12 29 -25 43 -28 24 -6
27 -3 33 29 7 36 21 45 104 61 17 4 32 11 32 16 0 13 -65 11 -140 -5 -58 -13
-66 -13 -78 2 -7 10 -26 16 -49 15 -28 -1 -49 8 -91 39 -54 40 -250 228 -238
228 4 0 23 -7 43 -15 50 -21 54 -18 12 8 -19 12 -50 38 -68 59 -34 40 -91 67
-91 44z m453 -421 c4 -8 2 -17 -2 -20 -5 -2 -11 4 -14 15 -6 23 8 27 16 5z"/>
<path d="M3208 4983 c7 -3 16 -2 19 1 4 3 -2 6 -13 5 -11 0 -14 -3 -6 -6z"/>
<path d="M3318 4963 c6 -2 18 -2 25 0 6 3 1 5 -13 5 -14 0 -19 -2 -12 -5z"/>
<path d="M4808 4963 c7 -3 16 -2 19 1 4 3 -2 6 -13 5 -11 0 -14 -3 -6 -6z"/>
<path d="M3965 4920 c-3 -5 -1 -10 4 -10 6 0 11 5 11 10 0 6 -2 10 -4 10 -3 0
-8 -4 -11 -10z"/>
<path d="M5440 4905 c0 -27 52 -56 64 -36 3 5 -6 12 -21 16 -16 3 -31 12 -35
18 -4 7 -8 8 -8 2z"/>
<path d="M2828 4863 c7 -3 16 -2 19 1 4 3 -2 6 -13 5 -11 0 -14 -3 -6 -6z"/>
<path d="M2050 4846 c0 -9 7 -16 16 -16 9 0 14 5 12 12 -6 18 -28 21 -28 4z"/>
<path d="M2220 4831 c8 -5 17 -8 21 -5 4 2 10 0 14 -6 3 -5 11 -10 18 -10 22
0 -9 21 -39 26 -21 3 -25 2 -14 -5z"/>
<path d="M2818 4813 c7 -3 16 -2 19 1 4 3 -2 6 -13 5 -11 0 -14 -3 -6 -6z"/>
<path d="M4237 4703 c-4 -3 -7 -11 -7 -17 0 -6 5 -5 12 2 6 6 9 14 7 17 -3 3
-9 2 -12 -2z"/>
<path d="M2608 4623 c7 -3 16 -2 19 1 4 3 -2 6 -13 5 -11 0 -14 -3 -6 -6z"/>
<path d="M2760 4601 c0 -12 137 -13 176 -1 21 6 2 9 -73 9 -57 1 -103 -3 -103
-8z"/>
<path d="M3400 4580 c8 -5 26 -9 40 -9 23 0 23 1 5 9 -11 5 -29 9 -40 9 -17 1
-17 -1 -5 -9z"/>
<path d="M2744 4568 c-3 -4 -12 -4 -21 -1 -15 6 -16 5 -3 -9 8 -9 17 -12 18
-7 9 23 24 7 18 -18 l-7 -28 21 30 c11 17 20 33 20 37 0 9 -40 6 -46 -4z"/>
<path d="M3476 4571 c6 -7 53 -16 104 -22 102 -10 215 -27 243 -35 9 -3 17 -1
17 4 0 5 -15 13 -32 16 -166 35 -350 55 -332 37z"/>
<path d="M3118 4563 c6 -3 12 -9 12 -14 0 -5 -11 -4 -26 1 -19 8 -25 7 -22 -2
4 -11 -70 -39 -109 -41 -7 0 -13 -5 -13 -10 0 -5 -7 -7 -15 -3 -9 3 -15 0 -15
-8 0 -10 -7 -12 -22 -8 -20 5 -21 3 -10 -10 10 -13 10 -18 1 -24 -7 -4 -15 -2
-17 4 -6 18 -22 14 -22 -4 0 -11 -5 -14 -16 -10 -10 4 -14 2 -11 -6 2 -7 -2
-20 -10 -29 -14 -17 -25 -112 -12 -104 4 3 27 1 53 -4 25 -5 43 -5 40 0 -3 5
2 9 10 9 9 0 16 -3 16 -8 0 -8 73 -42 90 -42 6 0 10 5 10 10 0 6 7 10 15 10 9
0 12 -6 8 -16 -4 -11 0 -14 18 -11 13 2 18 2 12 0 -25 -9 -13 -23 13 -17 16 4
25 3 21 -3 -3 -5 -2 -15 3 -23 7 -11 12 -11 23 -2 12 10 16 9 21 -4 4 -9 13
-14 21 -10 8 3 15 0 15 -7 0 -8 4 -7 10 3 8 12 13 11 33 -8 13 -12 29 -22 35
-22 23 0 12 -20 -14 -26 -20 -5 -23 -9 -12 -16 9 -6 6 -7 -9 -3 -17 5 -23 2
-23 -10 0 -11 -5 -15 -15 -11 -9 3 -15 0 -15 -10 0 -25 -25 -26 -64 -4 -20 12
-36 17 -36 11 0 -6 7 -11 16 -11 8 0 12 -4 9 -10 -3 -5 -1 -10 5 -10 7 0 10
-6 7 -12 -3 -10 20 -13 97 -12 120 1 193 11 223 30 12 8 33 14 45 14 13 0 33
11 46 25 13 13 30 21 37 18 8 -3 17 2 21 10 3 9 11 14 18 11 20 -8 124 59 128
81 3 21 24 19 22 -2 -1 -7 3 -10 8 -7 5 4 7 15 5 26 -4 12 -1 18 6 15 7 -2 11
-12 11 -21 -1 -9 2 -16 7 -16 5 0 9 -10 9 -22 l0 -23 19 24 c12 16 24 22 35
18 20 -8 21 -27 1 -27 -16 0 -18 -12 -9 -47 4 -14 14 -23 25 -23 21 0 35 27
41 76 2 24 -1 29 -19 29 -11 0 -25 3 -29 8 -11 11 -44 9 -44 -3 0 -5 -5 -10
-10 -10 -7 0 -7 6 0 20 9 16 8 18 -5 14 -8 -4 -15 -1 -15 5 0 6 7 11 15 11 10
0 15 10 15 30 0 17 6 33 13 36 19 7 19 60 1 75 -18 15 -18 29 2 29 8 0 12 5 8
11 -3 6 0 15 7 20 11 7 9 9 -6 9 -15 0 -17 2 -6 9 15 10 -70 32 -179 45 -19 3
-69 10 -110 16 -41 6 -90 13 -108 15 -46 7 -349 14 -334 8z m137 -123 c3 -5 1
-10 -4 -10 -6 0 -11 5 -11 10 0 6 2 10 4 10 3 0 8 -4 11 -10z m-129 -68 c-3
-5 15 -24 39 -43 24 -18 44 -40 45 -47 0 -7 -4 -11 -9 -8 -4 3 -23 8 -42 11
-19 3 -48 8 -66 11 -21 4 -39 1 -55 -10 -30 -21 -51 -20 -73 4 -10 11 -13 20
-7 20 7 0 12 -5 12 -11 0 -8 11 -9 32 -5 46 9 55 22 33 46 -11 13 -15 24 -10
28 6 4 10 14 10 22 0 9 9 15 22 15 11 0 25 3 29 8 9 9 47 -30 40 -41z m314 -2
c12 -7 12 -12 2 -22 -9 -9 -12 -9 -12 4 0 9 -6 19 -12 21 -7 3 -8 6 -3 6 6 0
17 -4 25 -9z m-25 -20 c-3 -5 -1 -10 4 -10 19 0 12 -19 -11 -31 -20 -11 -21
-10 -10 3 7 9 10 23 6 32 -3 9 -1 16 6 16 6 0 8 -4 5 -10z m55 -14 c0 -2 -7
-7 -16 -10 -8 -3 -12 -2 -9 4 6 10 25 14 25 6z m337 -42 c-3 -3 -12 -4 -19 -1
-8 3 -5 6 6 6 11 1 17 -2 13 -5z m-17 -18 c0 -2 -7 -7 -16 -10 -8 -3 -12 -2
-9 4 6 10 25 14 25 6z m-620 -16 c0 -5 -4 -10 -10 -10 -5 0 -10 5 -10 10 0 6
5 10 10 10 6 0 10 -4 10 -10z m35 -10 c-3 -5 -12 -10 -18 -10 -7 0 -6 4 3 10
19 12 23 12 15 0z"/>
<path d="M2688 4544 c22 -17 30 -44 12 -44 -5 0 -14 8 -19 18 -6 9 -11 12 -11
6 0 -19 38 -56 51 -48 8 4 9 3 5 -4 -11 -19 10 -14 35 8 l24 20 -27 -6 c-26
-6 -34 1 -29 29 0 4 -4 7 -10 7 -5 0 -7 5 -4 10 3 6 2 10 -4 10 -5 0 -18 3
-28 6 -14 4 -13 1 5 -12z"/>
<path d="M2636 4532 c-3 -5 1 -9 9 -9 8 0 15 4 15 9 0 4 -4 8 -9 8 -6 0 -12
-4 -15 -8z"/>
<path d="M3880 4513 l-35 -14 35 6 c19 3 39 10 44 15 13 13 0 11 -44 -7z"/>
<path d="M3910 4502 c-9 -3 -1 -10 20 -17 19 -6 39 -21 45 -33 12 -27 35 -29
35 -4 0 35 -61 67 -100 54z"/>
<path d="M4025 4420 c-3 -5 -2 -10 4 -10 5 0 13 5 16 10 3 6 2 10 -4 10 -5 0
-13 -4 -16 -10z"/>
<path d="M3987 4353 c-3 -5 -8 -30 -12 -58 -4 -27 -9 -59 -11 -70 -2 -11 -14
-60 -28 -110 -14 -49 -23 -101 -20 -115 4 -20 3 -22 -5 -10 -9 13 -11 12 -11
-3 0 -50 50 26 113 171 24 55 32 108 18 116 -6 4 -11 0 -11 -9 0 -32 -25 -95
-38 -95 -17 0 -6 40 16 58 11 8 12 12 3 12 -8 0 -11 6 -7 15 12 33 17 105 7
105 -5 0 -12 -3 -14 -7z"/>
<path d="M2765 4300 c3 -5 8 -10 11 -10 2 0 4 5 4 10 0 6 -5 10 -11 10 -5 0
-7 -4 -4 -10z"/>
<path d="M3890 4270 c-6 -11 -8 -20 -6 -20 3 0 10 9 16 20 6 11 8 20 6 20 -3
0 -10 -9 -16 -20z"/>
<path d="M3230 4140 c0 -5 7 -10 15 -10 8 0 15 5 15 10 0 6 -7 10 -15 10 -8 0
-15 -4 -15 -10z"/>
<path d="M2100 3850 c0 -19 3 -21 12 -12 9 9 9 15 0 24 -9 9 -12 7 -12 -12z"/>
<path d="M3515 3623 c-27 -8 -57 -21 -66 -29 -8 -8 -21 -14 -28 -14 -7 0 -9
-5 -6 -11 4 -6 -2 -13 -14 -16 -12 -3 -21 -11 -21 -18 0 -8 -9 -17 -20 -20
-11 -3 -20 -11 -20 -16 0 -5 -6 -9 -14 -9 -8 0 -18 -9 -21 -20 -3 -11 -15 -25
-26 -31 -11 -5 -17 -14 -14 -19 3 -6 -6 -15 -20 -22 -16 -7 -24 -17 -20 -26 4
-10 0 -12 -11 -8 -12 4 -15 2 -11 -9 4 -8 -1 -19 -10 -23 -9 -5 -17 -22 -19
-37 -3 -33 -23 -48 -41 -33 -9 7 -13 7 -13 0 0 -6 5 -12 11 -14 10 -3 0 -24
-56 -121 -11 -20 -13 -32 -6 -41 7 -8 3 -17 -15 -31 -24 -18 -24 -20 -7 -26
16 -7 15 -8 -5 -8 -31 -1 -37 -25 -17 -67 19 -40 15 -53 -8 -29 -10 9 -18 11
-22 5 -3 -5 -2 -10 4 -10 7 0 7 -8 1 -26 -13 -33 -6 -44 31 -44 16 0 29 -5 29
-11 0 -6 5 -9 11 -7 6 2 10 7 9 12 -1 4 10 20 24 35 19 19 25 34 20 47 -4 10
-4 16 0 12 5 -4 19 5 33 20 17 19 23 22 19 9 -4 -13 -1 -17 12 -15 9 1 23 -1
30 -6 7 -4 16 -5 20 -1 3 3 0 10 -8 15 -12 8 -12 10 4 10 15 0 16 2 6 15 -10
12 -10 21 -2 40 7 14 16 25 22 25 5 0 10 10 11 23 0 12 3 16 6 10 7 -18 33
-16 33 3 0 11 6 14 21 9 16 -5 20 -3 17 11 -2 12 4 18 20 19 13 1 30 9 39 18
13 13 14 19 3 31 -18 23 -32 19 -25 -6 4 -16 3 -19 -3 -9 -5 7 -15 17 -22 21
-10 6 -5 16 19 38 21 19 28 31 20 34 -16 5 -20 51 -5 60 16 11 28 10 21 -2 -3
-6 2 -18 11 -28 16 -15 17 -15 12 0 -4 9 -2 18 5 21 9 3 9 14 1 45 -6 23 -7
39 -3 36 5 -3 9 6 9 19 0 14 7 30 15 37 8 7 15 18 15 25 0 8 9 12 23 9 13 -3
16 -1 7 3 -9 4 5 11 39 17 48 10 56 15 62 39 6 23 5 26 -6 17 -18 -15 -30 5
-26 46 1 18 -1 34 -6 37 -4 2 -30 -2 -58 -10z m-149 -400 c-10 -10 -19 5 -10
18 6 11 8 11 12 0 2 -7 1 -15 -2 -18z m-36 -53 c8 -5 11 -10 5 -10 -5 0 -17 5
-25 10 -8 5 -10 10 -5 10 6 0 17 -5 25 -10z m23 -27 c-7 -2 -19 -2 -25 0 -7 3
-2 5 12 5 14 0 19 -2 13 -5z m-23 -23 c0 -5 -5 -10 -11 -10 -5 0 -7 5 -4 10 3
6 8 10 11 10 2 0 4 -4 4 -10z m-140 -60 c0 -5 -4 -10 -10 -10 -5 0 -10 5 -10
10 0 6 5 10 10 10 6 0 10 -4 10 -10z m0 -34 c0 -3 -4 -8 -10 -11 -5 -3 -10 -1
-10 4 0 6 5 11 10 11 6 0 10 -2 10 -4z m-116 -48 c-3 -5 -12 -2 -20 6 -20 21
-17 28 5 14 11 -7 17 -16 15 -20z m81 22 c-3 -5 -11 -10 -16 -10 -6 0 -7 5 -4
10 3 6 11 10 16 10 6 0 7 -4 4 -10z m-80 -60 c-3 -5 -11 -10 -16 -10 -6 0 -7
5 -4 10 3 6 11 10 16 10 6 0 7 -4 4 -10z"/>
<path d="M4493 3616 c-8 -10 -9 -16 0 -25 18 -18 34 -13 32 11 -2 26 -16 32
-32 14z"/>
<path d="M4550 3560 c0 -5 7 -10 15 -10 8 0 15 5 15 10 0 6 -7 10 -15 10 -8 0
-15 -4 -15 -10z"/>
<path d="M4545 3520 c3 -5 13 -10 21 -10 8 0 12 5 9 10 -3 6 -13 10 -21 10 -8
0 -12 -4 -9 -10z"/>
<path d="M4675 3520 c3 -5 8 -10 11 -10 2 0 4 5 4 10 0 6 -5 10 -11 10 -5 0
-7 -4 -4 -10z"/>
<path d="M3677 3387 c3 -5 21 -15 39 -23 19 -8 34 -19 34 -24 0 -6 3 -9 8 -9
29 5 51 -4 57 -23 6 -20 8 -20 12 -5 2 9 10 15 16 11 7 -3 3 2 -7 10 -11 9
-16 19 -12 23 4 4 10 2 14 -4 4 -7 22 -8 47 -4 l40 6 -50 20 c-52 19 -207 37
-198 22z"/>
<path d="M3927 3336 c-4 -10 0 -12 14 -9 10 3 19 0 19 -6 0 -6 5 -11 11 -11
14 0 2 18 -21 30 -13 7 -19 6 -23 -4z"/>
<path d="M3868 3303 c7 -3 16 -2 19 1 4 3 -2 6 -13 5 -11 0 -14 -3 -6 -6z"/>
<path d="M3430 3245 c0 -5 5 -17 10 -25 5 -8 10 -10 10 -5 0 6 -5 17 -10 25
-5 8 -10 11 -10 5z"/>
<path d="M3430 3193 c0 -13 29 -38 35 -31 3 3 -4 13 -15 23 -11 10 -20 13 -20
8z"/>
<path d="M3985 3180 c-3 -6 -16 -8 -29 -4 -24 6 -52 -18 -42 -34 19 -30 67
-15 80 26 8 23 2 30 -9 12z m-21 -25 c3 -8 1 -15 -4 -15 -6 0 -10 4 -10 10 0
5 -7 6 -17 3 -11 -4 -14 -3 -9 5 10 17 33 15 40 -3z"/>
<path d="M3590 3150 c0 -5 5 -10 10 -10 6 0 10 5 10 10 0 6 -4 10 -10 10 -5 0
-10 -4 -10 -10z"/>
<path d="M3030 3140 c0 -5 5 -10 11 -10 5 0 7 5 4 10 -3 6 -8 10 -11 10 -2 0
-4 -4 -4 -10z"/>
<path d="M3370 3100 c0 -5 5 -10 10 -10 6 0 10 5 10 10 0 6 -4 10 -10 10 -5 0
-10 -4 -10 -10z"/>
<path d="M3680 3099 c0 -5 5 -7 10 -4 6 3 10 8 10 11 0 2 -4 4 -10 4 -5 0 -10
-5 -10 -11z"/>
<path d="M3750 3080 c-8 -5 -12 -12 -8 -15 10 -10 49 5 43 16 -8 11 -16 11
-35 -1z"/>
<path d="M3388 3063 c7 -3 16 -2 19 1 4 3 -2 6 -13 5 -11 0 -14 -3 -6 -6z"/>
<path d="M3775 3050 c-3 -5 1 -10 9 -10 9 0 16 5 16 10 0 6 -4 10 -9 10 -6 0
-13 -4 -16 -10z"/>
<path d="M3270 3036 c0 -12 33 -35 41 -30 6 3 2 12 -8 20 -18 13 -33 18 -33
10z"/>
<path d="M3252 3008 c2 -6 10 -14 16 -16 7 -2 10 2 6 12 -7 18 -28 22 -22 4z"/>
<path d="M3418 2973 c7 -3 16 -2 19 1 4 3 -2 6 -13 5 -11 0 -14 -3 -6 -6z"/>
<path d="M3631 2954 c-21 -22 -21 -24 -4 -24 19 0 48 36 35 44 -4 2 -18 -6
-31 -20z"/>
<path d="M2955 2934 c0 -13 5 -24 12 -24 6 0 9 9 6 20 -8 30 -18 32 -18 4z"/>
<path d="M3270 2951 c0 -5 5 -13 10 -16 6 -3 10 -2 10 4 0 5 -4 13 -10 16 -5
3 -10 2 -10 -4z"/>
<path d="M3916 2934 c-8 -21 -4 -25 14 -14 11 7 12 12 4 20 -8 8 -13 7 -18 -6z"/>
<path d="M3145 2890 c-3 -5 -1 -10 4 -10 6 0 11 5 11 10 0 6 -2 10 -4 10 -3 0
-8 -4 -11 -10z"/>
<path d="M3608 2893 c7 -3 16 -2 19 1 4 3 -2 6 -13 5 -11 0 -14 -3 -6 -6z"/>
<path d="M3240 2881 c0 -5 9 -11 21 -14 16 -4 18 -3 8 9 -13 16 -29 19 -29 5z"/>
<path d="M3110 2860 c0 -5 5 -10 10 -10 6 0 10 5 10 10 0 6 -4 10 -10 10 -5 0
-10 -4 -10 -10z"/>
<path d="M3017 2833 c-10 -9 -9 -23 2 -23 5 0 11 7 15 15 5 15 -5 20 -17 8z"/>
<path d="M3080 2820 c0 -5 5 -10 10 -10 6 0 10 5 10 10 0 6 -4 10 -10 10 -5 0
-10 -4 -10 -10z"/>
<path d="M3185 2810 c-3 -5 3 -10 15 -10 12 0 18 5 15 10 -3 6 -10 10 -15 10
-5 0 -12 -4 -15 -10z"/>
<path d="M3760 2810 c0 -5 5 -10 11 -10 5 0 7 5 4 10 -3 6 -8 10 -11 10 -2 0
-4 -4 -4 -10z"/>
<path d="M3062 2778 c0 -18 -6 -34 -11 -36 -12 -4 -5 -22 9 -22 33 0 44 56 15
80 -9 7 -12 2 -13 -22z"/>
<path d="M3315 2800 c-3 -5 -1 -10 4 -10 6 0 11 5 11 10 0 6 -2 10 -4 10 -3 0
-8 -4 -11 -10z"/>
<path d="M3027 2762 c-19 -20 -23 -37 -7 -27 10 6 33 45 27 45 -2 0 -11 -8
-20 -18z"/>
<path d="M3130 2759 c0 -5 5 -7 10 -4 6 3 10 8 10 11 0 2 -4 4 -10 4 -5 0 -10
-5 -10 -11z"/>
<path d="M3015 2711 c-6 -11 9 -23 19 -14 9 9 7 23 -3 23 -6 0 -12 -4 -16 -9z"/>
<path d="M3914 2620 c0 -13 4 -16 10 -10 7 7 7 13 0 20 -6 6 -10 3 -10 -10z"/>
<path d="M3955 2614 c-20 -15 -12 -17 19 -5 11 4 15 10 10 13 -5 4 -18 0 -29
-8z"/>
<path d="M2500 2610 c0 -5 5 -10 10 -10 6 0 10 5 10 10 0 6 -4 10 -10 10 -5 0
-10 -4 -10 -10z"/>
<path d="M2553 2595 c0 -8 4 -12 9 -9 5 3 6 10 3 15 -9 13 -12 11 -12 -6z"/>
<path d="M2745 2540 c-3 -5 -1 -10 4 -10 6 0 11 5 11 10 0 6 -2 10 -4 10 -3 0
-8 -4 -11 -10z"/>
<path d="M2670 2519 c0 -5 5 -7 10 -4 6 3 10 8 10 11 0 2 -4 4 -10 4 -5 0 -10
-5 -10 -11z"/>
<path d="M2626 2505 c4 -8 10 -12 15 -9 11 6 2 24 -11 24 -5 0 -7 -7 -4 -15z"/>
<path d="M2696 2425 c4 -8 8 -15 10 -15 2 0 4 7 4 15 0 8 -4 15 -10 15 -5 0
-7 -7 -4 -15z"/>
<path d="M2545 2390 c3 -5 14 -10 23 -10 15 0 15 2 2 10 -20 13 -33 13 -25 0z"/>
<path d="M2797 2385 c-4 -8 -2 -17 3 -20 5 -3 6 -13 3 -23 -6 -16 -6 -16 10 0
21 20 21 28 2 28 -9 0 -12 6 -9 15 4 8 4 15 1 15 -3 0 -7 -7 -10 -15z"/>
<path d="M3618 2393 c7 -3 16 -2 19 1 4 3 -2 6 -13 5 -11 0 -14 -3 -6 -6z"/>
<path d="M2560 2361 c0 -5 7 -12 16 -15 14 -5 15 -4 4 9 -14 17 -20 19 -20 6z"/>
<path d="M2835 2340 c-3 -5 -1 -10 4 -10 6 0 11 5 11 10 0 6 -2 10 -4 10 -3 0
-8 -4 -11 -10z"/>
<path d="M3230 2341 c0 -5 -14 -12 -30 -16 -20 -4 -28 -11 -23 -18 4 -7 8 -16
8 -22 0 -5 16 -11 35 -13 19 -2 41 -8 47 -14 9 -7 13 -7 13 2 0 8 2 11 5 9 11
-11 -20 -69 -37 -69 -9 0 -20 -5 -24 -12 -5 -8 0 -9 15 -5 12 3 27 0 34 -7 11
-10 23 -12 52 -7 6 1 3 6 -5 12 -12 9 -11 10 8 6 15 -4 22 0 22 10 0 8 -6 13
-12 10 -51 -19 -57 -18 -53 4 2 12 12 27 22 35 21 16 37 18 28 4 -12 -20 5
-28 34 -17 17 6 27 15 25 19 -3 5 -10 6 -15 3 -5 -4 -9 0 -9 7 0 8 -9 21 -20
31 -19 16 -20 16 -20 -5 0 -20 -1 -20 -23 5 -28 33 -42 35 -27 5 10 -21 10
-21 -3 -5 -8 9 -19 17 -26 17 -6 0 -11 5 -11 10 0 6 5 10 10 10 6 0 10 5 10
10 0 6 -7 10 -15 10 -8 0 -15 -4 -15 -9z m127 -83 c-3 -8 -6 -5 -6 6 -1 11 2
17 5 13 3 -3 4 -12 1 -19z"/>
<path d="M2606 2324 c-9 -24 0 -29 21 -13 15 13 16 12 9 -6 -6 -16 -5 -17 5
-8 10 10 9 15 -1 28 -16 19 -26 19 -34 -1z"/>
<path d="M3525 2330 c-3 -6 1 -7 9 -4 18 7 21 14 7 14 -6 0 -13 -4 -16 -10z"/>
<path d="M2765 2310 c-8 -13 5 -13 25 0 13 8 13 10 -2 10 -9 0 -20 -4 -23 -10z"/>
<path d="M3485 2310 c-3 -5 -1 -10 4 -10 6 0 11 5 11 10 0 6 -2 10 -4 10 -3 0
-8 -4 -11 -10z"/>
<path d="M3596 2311 c-4 -5 -2 -12 3 -15 5 -4 12 -2 15 3 4 5 2 12 -3 15 -5 4
-12 2 -15 -3z"/>
<path d="M2710 2300 c0 -5 7 -10 16 -10 8 0 12 5 9 10 -3 6 -10 10 -16 10 -5
0 -9 -4 -9 -10z"/>
<path d="M2840 2300 c0 -5 5 -10 10 -10 6 0 10 5 10 10 0 6 -4 10 -10 10 -5 0
-10 -4 -10 -10z"/>
<path d="M3040 2301 c0 -6 5 -13 10 -16 6 -3 10 1 10 9 0 9 -4 16 -10 16 -5 0
-10 -4 -10 -9z"/>
<path d="M3400 2295 c0 -8 5 -15 10 -15 6 0 10 7 10 15 0 8 -4 15 -10 15 -5 0
-10 -7 -10 -15z"/>
<path d="M3530 2300 c0 -5 5 -10 10 -10 6 0 10 5 10 10 0 6 -4 10 -10 10 -5 0
-10 -4 -10 -10z"/>
<path d="M2795 2280 c-3 -5 -2 -10 4 -10 5 0 13 5 16 10 3 6 2 10 -4 10 -5 0
-13 -4 -16 -10z"/>
<path d="M3491 2260 c-24 -33 -21 -50 9 -50 13 0 17 5 14 14 -4 11 0 13 14 9
16 -4 20 0 18 20 0 14 -5 23 -10 20 -4 -3 -11 0 -15 6 -5 7 -15 0 -30 -19z"/>
<path d="M2650 2270 c20 -13 33 -13 25 0 -3 6 -14 10 -23 10 -15 0 -15 -2 -2
-10z"/>
<path d="M2737 2259 c-4 -15 -11 -19 -24 -15 -21 7 -51 -9 -39 -21 5 -4 11 -2
13 5 8 21 26 13 20 -9 -5 -19 -4 -20 19 -4 21 13 24 14 24 1 0 -10 6 -13 16
-9 12 4 13 8 3 13 -6 5 -10 14 -7 22 3 7 0 18 -7 25 -10 9 -14 8 -18 -8z"/>
<path d="M2950 2270 c0 -5 5 -10 11 -10 5 0 7 5 4 10 -3 6 -8 10 -11 10 -2 0
-4 -4 -4 -10z"/>
<path d="M3567 2274 c-10 -10 17 -44 35 -44 9 0 18 -6 21 -12 2 -7 8 -10 12
-6 10 10 -13 38 -31 38 -8 0 -14 7 -14 15 0 15 -12 20 -23 9z"/>
<path d="M3422 2250 c0 -14 2 -19 5 -12 2 6 2 18 0 25 -3 6 -5 1 -5 -13z"/>
<path d="M3620 2260 c0 -5 5 -10 10 -10 6 0 10 5 10 10 0 6 -4 10 -10 10 -5 0
-10 -4 -10 -10z"/>
<path d="M2790 2240 c0 -5 6 -10 14 -10 8 0 18 5 21 10 3 6 -3 10 -14 10 -12
0 -21 -4 -21 -10z"/>
<path d="M3000 2220 c-20 -12 -9 -21 18 -13 12 3 19 9 16 14 -7 11 -15 11 -34
-1z"/>
<path d="M3300 2220 c0 -5 5 -10 11 -10 5 0 7 5 4 10 -3 6 -8 10 -11 10 -2 0
-4 -4 -4 -10z"/>
<path d="M3386 2211 c-4 -7 -5 -15 -2 -18 9 -9 19 4 14 18 -4 11 -6 11 -12 0z"/>
<path d="M3414 2209 c-3 -5 1 -9 10 -9 8 0 21 -3 30 -6 9 -3 16 -2 16 4 0 13
-49 22 -56 11z"/>
<path d="M2950 2172 c0 -15 4 -20 16 -15 9 3 12 9 7 12 -4 3 -11 10 -15 15 -5
5 -8 0 -8 -12z"/>
<path d="M2908 2153 c-10 -2 -18 -9 -18 -15 0 -5 6 -8 14 -5 19 8 42 -18 25
-28 -6 -4 -16 -1 -21 6 -7 11 -11 11 -15 2 -2 -7 -12 -13 -21 -13 -12 -1 -10
-5 8 -15 18 -9 29 -10 38 -3 9 8 11 7 6 -6 -8 -20 14 -21 40 -1 19 15 19 16
-6 19 -13 1 -14 5 -17 46 -1 20 -3 21 -33 13z"/>
<path d="M3005 2150 c-4 -6 -2 -17 4 -24 7 -9 7 -16 -2 -25 -10 -11 -8 -11 12
-1 22 11 23 14 8 25 -12 9 -14 14 -5 23 9 9 9 12 1 12 -7 0 -15 -5 -18 -10z"/>
<path d="M3270 2140 c0 -5 7 -10 16 -10 8 0 12 5 9 10 -3 6 -10 10 -16 10 -5
0 -9 -4 -9 -10z"/>
<path d="M3240 2120 c0 -5 5 -10 10 -10 6 0 10 5 10 10 0 6 -4 10 -10 10 -5 0
-10 -4 -10 -10z"/>
<path d="M3037 2086 c-4 -10 -1 -13 8 -9 8 3 12 9 9 14 -7 12 -11 11 -17 -5z"/>
<path d="M3070 2083 c0 -5 6 -16 14 -25 9 -13 16 -14 24 -6 8 8 7 15 -6 24
-19 15 -32 18 -32 7z"/>
<path d="M2995 2070 c-3 -5 -1 -10 4 -10 6 0 11 5 11 10 0 6 -2 10 -4 10 -3 0
-8 -4 -11 -10z"/>
<path d="M3330 2060 c0 -5 5 -10 10 -10 6 0 10 5 10 10 0 6 -4 10 -10 10 -5 0
-10 -4 -10 -10z"/>
<path d="M3043 2054 c3 -4 1 -16 -5 -28 -10 -19 -10 -20 5 -7 16 12 22 8 18
-13 -1 -5 7 -6 17 -4 11 3 27 1 37 -5 15 -8 17 -7 12 6 -3 9 -1 18 6 21 7 3 1
3 -13 0 -18 -4 -32 1 -44 15 -11 12 -24 21 -29 21 -6 0 -7 -3 -4 -6z"/>
<path d="M3145 2050 c-16 -7 -17 -9 -3 -9 25 -1 29 -14 13 -44 -10 -20 -11
-27 -2 -27 16 0 48 58 36 65 -5 4 -7 11 -4 16 7 11 -13 11 -40 -1z"/>
<path d="M3470 2030 c-6 -11 -8 -20 -6 -20 3 0 10 9 16 20 6 11 8 20 6 20 -3
0 -10 -9 -16 -20z"/>
<path d="M3398 2032 c-10 -2 -18 -8 -18 -13 0 -11 11 -11 30 1 18 11 11 18
-12 12z"/>
<path d="M3250 1975 c0 -12 5 -15 16 -11 9 4 22 2 28 -3 7 -6 17 -6 26 -1 19
12 13 17 -32 25 -32 6 -38 4 -38 -10z"/>
<path d="M3195 1970 c-3 -6 1 -7 10 -4 11 5 14 2 9 -10 -3 -9 -11 -13 -17 -9
-6 4 -7 1 -2 -7 6 -10 11 -9 21 5 13 18 10 35 -6 35 -5 0 -12 -4 -15 -10z"/>
<path d="M4004 1966 c-8 -22 -2 -27 16 -16 12 7 12 12 3 21 -10 10 -14 9 -19
-5z"/>
<path d="M4032 1918 c2 -6 10 -14 16 -16 7 -2 10 2 6 12 -7 18 -28 22 -22 4z"/>
<path d="M3990 1902 c0 -11 37 -32 44 -25 3 3 -2 12 -12 19 -19 15 -32 18 -32
6z"/>
<path d="M2945 1870 c-3 -6 1 -7 9 -4 18 7 21 14 7 14 -6 0 -13 -4 -16 -10z"/>
<path d="M3951 1853 c0 -7 -8 -13 -16 -13 -21 0 -19 -16 3 -24 9 -3 23 -9 30
-12 7 -3 12 1 12 10 0 9 -4 16 -9 16 -5 0 -12 8 -14 18 -3 9 -5 11 -6 5z"/>
<path d="M3985 1840 c3 -5 8 -10 11 -10 2 0 4 5 4 10 0 6 -5 10 -11 10 -5 0
-7 -4 -4 -10z"/>
<path d="M3440 1823 c0 -15 19 -37 26 -31 3 4 -1 14 -10 23 -9 9 -16 13 -16 8z"/>
<path d="M3011 1807 c2 -1 13 -9 24 -17 19 -14 19 -14 6 3 -7 9 -18 17 -24 17
-6 0 -8 -1 -6 -3z"/>
<path d="M3860 1780 c0 -5 7 -10 15 -10 8 0 15 5 15 10 0 6 -7 10 -15 10 -8 0
-15 -4 -15 -10z"/>
<path d="M3092 1748 c2 -6 11 -12 20 -14 11 -1 15 3 11 12 -6 17 -36 19 -31 2z"/>
<path d="M3670 1750 c0 -5 7 -10 16 -10 8 0 12 5 9 10 -3 6 -10 10 -16 10 -5
0 -9 -4 -9 -10z"/>
<path d="M3510 1721 c0 -6 4 -13 10 -16 6 -3 7 1 4 9 -7 18 -14 21 -14 7z"/>
<path d="M3120 1711 c0 -10 19 -25 25 -20 1 2 -3 10 -11 17 -8 7 -14 8 -14 3z"/>
<path d="M3734 1695 c21 -16 32 -13 21 4 -3 6 -14 11 -23 11 -15 -1 -15 -2 2
-15z"/>
<path d="M3183 1693 c-15 -5 -17 -23 -4 -23 5 0 11 7 15 15 3 8 4 15 3 14 -1
0 -8 -3 -14 -6z"/>
<path d="M3170 1630 c0 -5 5 -10 10 -10 6 0 10 5 10 10 0 6 -4 10 -10 10 -5 0
-10 -4 -10 -10z"/>
<path d="M3245 1570 c5 -14 2 -20 -10 -20 -9 0 -13 -4 -10 -10 8 -13 16 -12
39 5 16 12 17 17 6 30 -18 21 -33 19 -25 -5z"/>
<path d="M3350 1556 c0 -9 5 -16 10 -16 6 0 10 4 10 9 0 6 -4 13 -10 16 -5 3
-10 -1 -10 -9z"/>
<path d="M3390 1535 c-7 -9 -10 -18 -7 -21 3 -3 10 4 17 15 13 25 8 27 -10 6z"/>
<path d="M3423 1515 c-17 -19 -16 -30 0 -16 8 6 17 8 20 4 4 -3 7 1 7 10 0 21
-11 21 -27 2z"/>
<path d="M3330 1510 c0 -5 7 -10 15 -10 8 0 15 5 15 10 0 6 -7 10 -15 10 -8 0
-15 -4 -15 -10z"/>
<path d="M3280 1457 c0 -10 8 -17 18 -17 9 0 13 4 7 8 -5 4 -13 11 -17 16 -5
5 -8 2 -8 -7z"/>
<path d="M3400 1454 c0 -9 5 -14 12 -12 18 6 21 28 4 28 -9 0 -16 -7 -16 -16z"/>
<path d="M3585 1451 c-3 -5 -1 -12 5 -16 5 -3 10 1 10 9 0 18 -6 21 -15 7z"/>
<path d="M3610 1430 c0 -5 7 -10 15 -10 8 0 15 5 15 10 0 6 -7 10 -15 10 -8 0
-15 -4 -15 -10z"/>
<path d="M3430 1420 c0 -5 5 -10 11 -10 5 0 7 5 4 10 -3 6 -8 10 -11 10 -2 0
-4 -4 -4 -10z"/>
<path d="M3390 1400 c-9 -6 -10 -10 -3 -10 6 0 15 5 18 10 8 12 4 12 -15 0z"/>
<path d="M3681 1384 c0 -11 3 -14 6 -6 3 7 2 16 -1 19 -3 4 -6 -2 -5 -13z"/>
<path d="M3504 1381 c3 -5 17 -11 31 -13 20 -4 23 -3 14 8 -12 15 -54 20 -45
5z"/>
<path d="M3440 1350 c0 -5 5 -10 11 -10 5 0 7 5 4 10 -3 6 -8 10 -11 10 -2 0
-4 -4 -4 -10z"/>
<path d="M3707 1319 c7 -7 15 -10 18 -7 3 3 -2 9 -12 12 -14 6 -15 5 -6 -5z"/>
<path d="M3548 1293 c7 -3 16 -2 19 1 4 3 -2 6 -13 5 -11 0 -14 -3 -6 -6z"/>
<path d="M3740 1289 c0 -5 5 -7 10 -4 6 3 10 8 10 11 0 2 -4 4 -10 4 -5 0 -10
-5 -10 -11z"/>
<path d="M3860 1180 c0 -5 5 -10 10 -10 6 0 10 5 10 10 0 6 -4 10 -10 10 -5 0
-10 -4 -10 -10z"/>
<path d="M3676 1075 c-3 -8 -1 -17 3 -20 5 -3 11 2 15 10 3 8 1 17 -3 20 -5 3
-11 -2 -15 -10z"/>
<path d="M3664 1025 c22 -17 36 -19 36 -6 0 10 -24 21 -43 21 -7 0 -3 -7 7
-15z"/>
<path d="M40 940 c0 -5 9 -10 20 -10 11 0 20 5 20 10 0 6 -9 10 -20 10 -11 0
-20 -4 -20 -10z"/>
<path d="M0 879 c0 -5 5 -7 10 -4 5 3 10 8 10 11 0 2 -4 4 -10 4 -5 0 -10 -5
-10 -11z"/>
<path d="M10 853 c-13 -15 -12 -16 4 -10 10 4 24 7 32 7 8 0 14 5 14 10 0 16
-34 11 -50 -7z"/>
<path d="M225 850 c3 -5 8 -10 11 -10 2 0 4 5 4 10 0 6 -5 10 -11 10 -5 0 -7
-4 -4 -10z"/>
<path d="M110 800 c-14 -11 -20 -20 -15 -19 13 0 50 28 44 33 -2 3 -15 -4 -29
-14z"/>
<path d="M3520 790 c0 -5 9 -10 20 -10 11 0 20 5 20 10 0 6 -9 10 -20 10 -11
0 -20 -4 -20 -10z"/>
<path d="M130 770 c-8 -5 -10 -10 -5 -10 6 0 17 5 25 10 8 5 11 10 5 10 -5 0
-17 -5 -25 -10z"/>
<path d="M3205 740 c-3 -5 1 -10 9 -10 9 0 16 5 16 10 0 6 -4 10 -9 10 -6 0
-13 -4 -16 -10z"/>
<path d="M3485 690 c-3 -5 1 -10 10 -10 9 0 13 5 10 10 -3 6 -8 10 -10 10 -2
0 -7 -4 -10 -10z"/>
</g>
</svg>
